<svg width="1920" height="960" viewBox="0 0 1920 960" fill="none" xmlns="http://www.w3.org/2000/svg">
<rect width="1920" height="960" fill="url(#paint0_linear_401_2)"/>
<g clip-path="url(#clip0_401_2)">
<path d="M1495.93 368.526H1463.31V391.996H1495.93V368.526Z" fill="#9BD8F9"/>
<path d="M1549 324.495H1516.37V391.996H1549V324.495Z" fill="#9BD8F9"/>
<path d="M1602.06 304.104H1569.44V391.99H1602.06V304.104Z" fill="#9BD8F9"/>
<path d="M1655.13 280.397H1622.5V391.996H1655.13V280.397Z" fill="#9BD8F9"/>
<path d="M1663 391.996H1455.43V397.047H1663V391.996Z" fill="#9BD8F9"/>
<path d="M1317.79 282.143C1317.79 297.194 1312.82 311.907 1303.51 324.421C1294.19 336.936 1280.96 346.69 1265.47 352.45C1249.98 358.21 1232.94 359.717 1216.5 356.78C1200.06 353.844 1184.96 346.596 1173.1 335.953C1161.25 325.311 1153.18 311.751 1149.91 296.989C1146.64 282.227 1148.32 266.926 1154.73 253.02C1161.15 239.115 1172.01 227.23 1185.95 218.868C1199.89 210.506 1216.27 206.043 1233.03 206.043V282.143H1317.79Z" fill="#FF6662"/>
<path d="M1332.06 273.6H1247.31V197.5C1269.78 197.5 1291.34 205.518 1307.24 219.789C1323.13 234.061 1332.06 253.417 1332.06 273.6Z" fill="#521755"/>
<path d="M1613.81 494.69L1595.88 586.491C1595.4 588.939 1593.97 591.153 1591.83 592.731C1589.69 594.31 1586.99 595.148 1584.22 595.096L1480.08 593.13L1443.58 573.688L1519.69 573.191L1533.21 491.34C1533.62 488.872 1535 486.618 1537.11 484.989C1539.21 483.36 1541.9 482.463 1544.67 482.463H1602.38C1604.07 482.461 1605.75 482.792 1607.29 483.434C1608.82 484.076 1610.19 485.013 1611.28 486.178C1612.37 487.344 1613.16 488.711 1613.6 490.181C1614.03 491.652 1614.11 493.191 1613.81 494.69Z" fill="#D7DEE2"/>
<path d="M1593.03 755.528L1554.96 594.057H1572.35L1601.66 755.437L1593.03 755.528Z" fill="#D7DEE2"/>
<path d="M1469.68 755.528L1507.74 594.057H1490.36L1461.05 755.437L1469.68 755.528Z" fill="#D7DEE2"/>
<path d="M1234.33 729.34L1180.29 762.5L1281.94 761.477L1281.53 728.866L1234.33 729.34Z" fill="#0A2255"/>
<path d="M1441.47 498.221L1266 548.156C1248.55 551.393 1238.04 559.693 1238.22 573.615L1222.63 729.459L1300.95 728.668L1316.96 606.023L1453.8 595.26C1453.8 595.26 1496.41 595.26 1515.28 549.936V512.397L1441.47 498.221Z" fill="#6D5652"/>
<path d="M1412.94 517.092C1412.94 517.092 1440.48 522.036 1462.2 521.047L1357.38 547.286C1351.57 548.791 1346.32 551.674 1342.19 555.633C1338.05 559.591 1335.18 564.478 1333.87 569.779L1328.68 605.102L1412.36 597.52L1506.25 517.092H1412.94Z" fill="#493734"/>
<path d="M1336.91 729.34L1282.86 762.5L1384.52 761.477L1384.11 728.866L1336.91 729.34Z" fill="#0A2255"/>
<path d="M1531.16 508.533L1368.58 548.156C1351.13 551.393 1340.62 559.693 1340.8 573.615L1325.2 729.459L1403.53 728.668L1419.53 606.023L1486.86 595.243C1486.86 595.243 1545.67 592.842 1548.34 549.919C1548.32 549.919 1548.32 513.233 1531.16 508.533Z" fill="#6D5652"/>
<path d="M1409.57 369.458V508.764C1409.57 510.972 1410.54 513.089 1412.28 514.651C1414.02 516.213 1416.38 517.091 1418.84 517.092H1529.53C1531.99 517.092 1534.35 516.215 1536.09 514.653C1537.83 513.091 1538.8 510.973 1538.8 508.764V390.272C1538.8 384.752 1536.36 379.458 1532.01 375.554C1527.67 371.651 1521.77 369.458 1515.62 369.458H1409.57Z" fill="#FF6662"/>
<path d="M1484.68 330.145L1492.06 369.463C1492.06 369.463 1481.21 379.272 1469.63 378.503C1458.05 377.735 1448.79 369.661 1448.79 369.661L1456.34 322.359C1456.34 322.359 1479.19 314.811 1484.68 330.145Z" fill="#FFC5C0"/>
<path d="M1450.36 359.774C1453.85 359.882 1457.33 359.271 1460.52 357.987C1463.71 356.703 1466.53 354.78 1468.76 352.366C1468.76 352.366 1456.03 346.858 1451.25 354.158L1450.36 359.774Z" fill="#FF9198"/>
<path d="M1448.79 305.325C1448.79 305.325 1429.69 349.395 1451.25 354.158C1451.25 354.158 1477.61 360.034 1486.29 338.722L1484.76 310.393C1484.76 310.393 1472.52 293.821 1448.79 305.325Z" fill="#FFC5C0"/>
<path d="M1445.16 315.229C1445.16 315.229 1457.12 318.297 1467.33 315.088L1447.34 309.743C1447.34 309.743 1446.25 311.353 1445.16 315.229Z" fill="#FF9198"/>
<path d="M1468.2 321.704L1467.33 315.088C1467.33 315.088 1432.87 317.845 1437.03 297.053C1437.03 297.053 1439.19 280.713 1456.09 285.685C1456.09 285.685 1463.98 290.177 1464.13 292.556C1464.13 292.556 1480.74 289.007 1479.14 303.714C1479.14 303.714 1498.53 301.669 1486.81 341.824C1486.81 341.824 1477.55 338.49 1470.66 325.439C1469.97 324.133 1468.82 323.049 1468.2 321.704Z" fill="#1E1E3C"/>
<path d="M1475.08 334.196C1479.3 334.196 1482.71 331.13 1482.71 327.348C1482.71 323.566 1479.3 320.5 1475.08 320.5C1470.87 320.5 1467.46 323.566 1467.46 327.348C1467.46 331.13 1470.87 334.196 1475.08 334.196Z" fill="#FFC5C0"/>
<path d="M1166.19 468.169L1201.87 465.372L1197.12 497.78L1168.18 498.572C1165.68 498.635 1163.2 498.205 1160.92 497.311C1158.63 496.418 1156.59 495.083 1154.94 493.401C1153.29 491.719 1152.08 489.732 1151.38 487.581C1150.68 485.43 1150.52 483.168 1150.91 480.955C1151.51 477.6 1153.34 474.52 1156.11 472.203C1158.87 469.887 1162.43 468.467 1166.19 468.169Z" fill="#FFC5C0"/>
<path d="M1192.89 466.078L1188.49 498.018L1197.12 497.786L1201.87 465.372L1192.89 466.078Z" fill="#FF9198"/>
<path d="M1163.36 461.05C1163.71 459.827 1164.59 458.778 1165.8 458.133C1167.01 457.489 1168.45 457.303 1169.81 457.615L1190.99 462.649C1190.99 462.649 1200.55 464.067 1201.18 465.864L1186.63 467.485L1183.8 470.649L1167.2 466.841C1166.53 466.687 1165.89 466.416 1165.33 466.041C1164.77 465.667 1164.3 465.198 1163.95 464.66C1163.59 464.122 1163.35 463.526 1163.25 462.907C1163.15 462.287 1163.19 461.656 1163.36 461.05Z" fill="#FFC5C0"/>
<path d="M1393.72 377.656L1327.76 460.745L1197.71 457.016L1196.9 463.406L1196.85 463.83L1192.81 495.758L1192.18 500.583L1328.32 504.979C1338.82 505.319 1349.14 502.446 1357.58 496.831L1434.03 422.873C1434.03 422.873 1452 380.792 1393.72 377.673" fill="#FF6662"/>
<path d="M1416.78 427.37C1434.72 427.37 1449.27 414.313 1449.27 398.205C1449.27 382.097 1434.72 369.04 1416.78 369.04C1398.84 369.04 1384.3 382.097 1384.3 398.205C1384.3 414.313 1398.84 427.37 1416.78 427.37Z" fill="#FF6662"/>
<path d="M1472.5 496.114L1538.84 502.447V508.764C1538.84 508.764 1539.51 513.81 1529.57 517.092H1412.94C1412.94 517.092 1408.48 517.279 1409.57 508.764L1472.5 496.114Z" fill="#F25353"/>
<path d="M1442.32 369.463C1442.32 369.463 1442.23 389.199 1470.35 389.199C1498.47 389.199 1497.9 369.463 1497.9 369.463H1442.32Z" fill="#FFC5C0"/>
<path d="M1538.82 429.461L1472.5 496.131C1468.61 500.039 1463.85 503.172 1458.52 505.325C1453.2 507.479 1447.43 508.606 1441.6 508.634L1409.57 508.781V455.004L1430.28 455.349L1468.76 415.149L1538.82 420.618V429.461Z" fill="#F25353"/>
<path d="M1271 468.169L1306.67 465.372L1301.93 497.78L1272.99 498.572C1270.49 498.635 1268.01 498.205 1265.73 497.311C1263.44 496.418 1261.4 495.083 1259.75 493.401C1258.1 491.719 1256.89 489.732 1256.19 487.581C1255.49 485.43 1255.33 483.168 1255.72 480.955C1256.32 477.6 1258.15 474.52 1260.91 472.203C1263.68 469.887 1267.23 468.467 1271 468.169Z" fill="#FFC5C0"/>
<path d="M1297.7 466.078L1293.3 498.018L1301.93 497.786L1306.68 465.372L1297.7 466.078Z" fill="#FF9198"/>
<path d="M1268.17 461.05C1268.52 459.827 1269.4 458.778 1270.61 458.133C1271.81 457.489 1273.26 457.303 1274.62 457.615L1295.78 462.654C1295.78 462.654 1305.34 464.073 1305.97 465.869L1291.42 467.491L1288.59 470.655L1271.99 466.847C1271.32 466.693 1270.68 466.42 1270.12 466.045C1269.57 465.67 1269.1 465.2 1268.74 464.661C1268.39 464.122 1268.15 463.526 1268.06 462.906C1267.96 462.287 1268 461.656 1268.17 461.05Z" fill="#FFC5C0"/>
<path d="M1498.52 377.656L1432.57 460.745L1302.52 457.016L1301.74 463.406L1301.69 463.83L1297.65 495.758L1297.02 500.583L1433.16 504.979C1443.66 505.319 1453.98 502.446 1462.42 496.831L1538.84 422.873C1538.84 422.873 1556.81 380.792 1498.52 377.673" fill="#FF6662"/>
<path d="M1521.59 427.37C1539.53 427.37 1554.07 414.313 1554.07 398.205C1554.07 382.097 1539.53 369.04 1521.59 369.04C1503.65 369.04 1489.1 382.097 1489.1 398.205C1489.1 414.313 1503.65 427.37 1521.59 427.37Z" fill="#FF6662"/>
<path d="M1398.74 457.021L1395.98 459.694L1329.66 458.361L1333.65 453.321L1398.74 457.021Z" fill="#F25353"/>
<path d="M1257.44 491.464H1116.94V401.442C1116.94 400.465 1117.37 399.528 1118.14 398.838C1118.91 398.147 1119.95 397.759 1121.04 397.759H1253.34C1254.43 397.759 1255.47 398.147 1256.24 398.838C1257.01 399.528 1257.44 400.465 1257.44 401.442V491.464Z" fill="#DDDDED"/>
<path d="M1330.51 502.261H1119.4C1118.74 502.261 1118.12 502.028 1117.66 501.614C1117.2 501.2 1116.94 500.638 1116.94 500.052V491.464H1332.97V500.052C1332.97 500.638 1332.71 501.2 1332.25 501.614C1331.78 502.028 1331.16 502.261 1330.51 502.261Z" fill="#ADADD8"/>
<path d="M1256.62 502.261H1119.4C1118.74 502.261 1118.12 502.028 1117.66 501.614C1117.2 501.2 1116.94 500.638 1116.94 500.052V491.464H1257.44V501.527C1257.44 501.721 1257.36 501.908 1257.2 502.046C1257.05 502.184 1256.84 502.261 1256.63 502.261H1256.62Z" fill="#C7C7E2"/>
<path d="M1187.19 461.649C1197.02 461.649 1204.99 454.493 1204.99 445.665C1204.99 436.837 1197.02 429.681 1187.19 429.681C1177.36 429.681 1169.39 436.837 1169.39 445.665C1169.39 454.493 1177.36 461.649 1187.19 461.649Z" fill="#C7C7E2"/>
<path d="M1519.22 502.447H1049.45V516.68H1519.22V502.447Z" fill="#EAE7DF"/>
<path d="M1053.74 762.5L1107.82 517.092H1086.69L1045 762.41L1053.74 762.5Z" fill="#A89A7B"/>
<path d="M1520.23 762.5L1466.15 517.092H1487.29L1528.97 762.41L1520.23 762.5Z" fill="#A89A7B"/>
<path d="M1447.13 482.006C1447.13 484.806 1445.89 487.492 1443.69 489.473C1441.48 491.453 1438.49 492.566 1435.37 492.566H1429.01V489.475H1435.37C1437.54 489.422 1439.6 488.611 1441.11 487.217C1442.62 485.823 1443.46 483.954 1443.46 482.009C1443.46 480.063 1442.62 478.195 1441.11 476.8C1439.6 475.406 1437.54 474.596 1435.37 474.542H1431.4V471.446H1435.37C1438.49 471.446 1441.48 472.558 1443.69 474.539C1445.89 476.519 1447.13 479.205 1447.13 482.006Z" fill="#EAE7DF"/>
<path d="M1433.57 471.446H1431.4V474.542H1433.57V471.446Z" fill="#DDD9CE"/>
<path d="M1433.57 489.475H1429.01V492.571H1433.57V489.475Z" fill="#DDD9CE"/>
<path d="M1399.23 467.57H1432.2V495.82C1432.2 497.642 1431.39 499.39 1429.96 500.678C1428.52 501.967 1426.58 502.69 1424.55 502.69H1406.88C1404.85 502.69 1402.9 501.967 1401.47 500.678C1400.03 499.39 1399.23 497.642 1399.23 495.82V467.57Z" fill="#EAE7DF"/>
<path d="M1427.94 467.57V490.001C1427.94 497.526 1421.68 501.577 1413.59 502.515C1414.29 502.601 1415 502.646 1415.71 502.651C1424.82 502.651 1432.19 498.176 1432.19 490.001V467.57H1427.94Z" fill="#DDD9CE"/>
<path d="M1507.81 690.457C1506.31 690.456 1504.85 690.043 1503.63 689.273C1502.4 688.503 1501.47 687.413 1500.95 686.152C1491.24 662.292 1476.15 650.364 1476 650.246C1475.26 649.691 1474.64 649.009 1474.2 648.24C1473.75 647.47 1473.48 646.629 1473.4 645.765C1473.32 644.901 1473.43 644.031 1473.72 643.205C1474.02 642.38 1474.5 641.616 1475.12 640.957C1475.75 640.298 1476.52 639.757 1477.38 639.367C1478.24 638.976 1479.18 638.744 1480.15 638.682C1481.11 638.621 1482.08 638.732 1482.99 639.009C1483.91 639.286 1484.75 639.724 1485.48 640.296C1486.22 640.861 1503.54 654.353 1514.65 681.654C1515.05 682.644 1515.18 683.706 1515.03 684.751C1514.88 685.796 1514.45 686.792 1513.78 687.655C1513.1 688.519 1512.21 689.224 1511.17 689.712C1510.13 690.199 1508.97 690.455 1507.8 690.457H1507.81Z" fill="#82CC62"/>
<path d="M1509.7 727.583L1508.88 727.487C1513.32 697.073 1505.38 676.428 1497.93 664.456C1489.85 651.494 1480.61 645.641 1480.52 645.585L1480.99 644.974C1481.08 645.037 1490.43 650.963 1498.61 664.06C1506.15 676.128 1514.17 696.96 1509.7 727.583Z" fill="#F7F1D2"/>
<path d="M1512.98 689.417C1514.19 689.418 1515.38 689.084 1516.37 688.459C1517.37 687.834 1518.13 686.95 1518.54 685.926C1526.43 666.552 1538.68 656.868 1538.81 656.772C1540 655.854 1540.74 654.548 1540.86 653.141C1540.98 651.735 1540.48 650.343 1539.45 649.271C1538.43 648.2 1536.98 647.537 1535.41 647.428C1533.85 647.32 1532.29 647.774 1531.1 648.692C1530.47 649.15 1516.44 660.105 1507.42 682.276C1507.09 683.079 1506.98 683.941 1507.11 684.79C1507.23 685.638 1507.58 686.447 1508.13 687.148C1508.67 687.849 1509.4 688.421 1510.24 688.816C1511.09 689.211 1512.03 689.417 1512.98 689.417Z" fill="#82CC62"/>
<path d="M1506.33 720.006H1505.51C1505.82 696.435 1513.69 679.326 1520.3 669.156C1527.43 658.099 1534.61 652.534 1534.68 652.483L1535.21 653.048C1535.14 653.105 1528.06 658.602 1520.99 669.563C1514.47 679.648 1506.64 696.615 1506.33 720.006Z" fill="#F7F1D2"/>
<path d="M1511.91 603.916H1504.07C1501.5 603.916 1499.42 605.788 1499.42 608.097V671.71C1499.42 674.019 1501.5 675.891 1504.07 675.891H1511.91C1514.48 675.891 1516.57 674.019 1516.57 671.71V608.097C1516.57 605.788 1514.48 603.916 1511.91 603.916Z" fill="#95D67C"/>
<path d="M1508.4 618.674H1507.58V731.606H1508.4V618.674Z" fill="#F7F1D2"/>
<path d="M1492.4 696.74C1490.71 696.739 1489.06 696.272 1487.68 695.402C1486.3 694.532 1485.25 693.3 1484.67 691.875C1473.71 664.975 1456.7 651.528 1456.53 651.398C1454.92 650.112 1453.94 648.311 1453.8 646.383C1453.65 644.454 1454.36 642.552 1455.76 641.084C1457.16 639.616 1459.14 638.699 1461.29 638.531C1463.43 638.363 1465.56 638.956 1467.23 640.183C1468.05 640.816 1487.58 656.003 1500.11 686.807C1500.57 687.922 1500.71 689.12 1500.54 690.298C1500.37 691.476 1499.89 692.6 1499.14 693.575C1498.38 694.549 1497.37 695.346 1496.2 695.897C1495.03 696.448 1493.72 696.737 1492.4 696.74Z" fill="#95D67C"/>
<path d="M1508.88 739.25C1505.46 714.683 1496.3 691.043 1481.99 669.88C1471.37 654.359 1461.71 646.15 1461.61 646.082L1462.17 645.517C1462.27 645.601 1472.02 653.867 1482.69 669.467C1497.06 690.723 1506.26 714.462 1509.7 739.132L1508.88 739.25Z" fill="#F7F1D2"/>
<path d="M1520.47 696.74C1522.16 696.737 1523.81 696.27 1525.19 695.4C1526.57 694.529 1527.62 693.299 1528.2 691.875C1539.15 664.975 1556.16 651.528 1556.33 651.398C1557.18 650.775 1557.88 650.006 1558.39 649.137C1558.9 648.268 1559.21 647.316 1559.3 646.338C1559.4 645.359 1559.28 644.373 1558.94 643.438C1558.61 642.503 1558.07 641.637 1557.36 640.891C1556.65 640.145 1555.78 639.533 1554.8 639.093C1553.82 638.653 1552.75 638.392 1551.66 638.326C1550.57 638.26 1549.48 638.391 1548.44 638.709C1547.41 639.028 1546.45 639.529 1545.64 640.183C1544.81 640.816 1525.28 656.003 1512.75 686.807C1512.3 687.923 1512.15 689.12 1512.32 690.297C1512.5 691.475 1512.98 692.598 1513.74 693.571C1514.5 694.544 1515.5 695.34 1516.68 695.889C1517.85 696.439 1519.15 696.727 1520.47 696.728V696.74Z" fill="#95D67C"/>
<path d="M1509.7 739.205H1508.88C1509.3 706.509 1520.65 682.79 1530.09 668.648C1540.33 653.314 1550.61 645.607 1550.72 645.528L1551.24 646.093C1551.14 646.172 1540.94 653.817 1530.77 669.049C1521.39 683.112 1510.12 706.695 1509.7 739.205Z" fill="#F7F1D2"/>
<path d="M1528.97 762.5H1487.01L1482.9 713.769H1533.08L1528.97 762.5Z" fill="#D2E4F9"/>
<path d="M1533.08 713.769L1531.93 727.538H1483.99L1482.9 713.769H1533.08Z" fill="#BED6ED"/>
</g>
<path d="M281.892 451V367H295.692V438.04H329.412V451H281.892ZM363.517 452.44C354.797 452.44 348.037 449.68 343.237 444.16C338.437 438.64 336.037 431.6 336.037 423.04C336.037 414.56 338.557 407.56 343.597 402.04C348.637 396.44 355.397 393.64 363.877 393.64C367.637 393.64 371.077 394.44 374.197 396.04C377.317 397.64 379.717 399.84 381.397 402.64V395.08H394.477V451H381.397V443.44C379.797 446.16 377.277 448.36 373.837 450.04C370.477 451.64 367.037 452.44 363.517 452.44ZM365.437 440.8C370.797 440.8 374.877 439.12 377.677 435.76C380.557 432.4 381.997 428.16 381.997 423.04C381.997 417.92 380.557 413.68 377.677 410.32C374.877 406.96 370.797 405.28 365.437 405.28C360.397 405.28 356.397 406.96 353.437 410.32C350.557 413.6 349.117 417.84 349.117 423.04C349.117 428.24 350.557 432.52 353.437 435.88C356.397 439.16 360.397 440.8 365.437 440.8ZM411.253 451V395.08H424.333V402.88C427.933 396.72 434.013 393.64 442.573 393.64C456.173 393.64 462.973 401.04 462.973 415.84V451H449.893V421.84C449.893 415.76 448.973 411.4 447.133 408.76C445.293 406.12 442.133 404.8 437.653 404.8C433.413 404.8 430.133 406.16 427.813 408.88C425.493 411.52 424.333 415.32 424.333 420.28V451H411.253ZM520.382 367H533.462V451H520.382V443.44C518.782 446.16 516.262 448.36 512.822 450.04C509.462 451.64 506.022 452.44 502.502 452.44C493.782 452.44 487.022 449.68 482.222 444.16C477.422 438.64 475.022 431.6 475.022 423.04C475.022 414.56 477.542 407.56 482.582 402.04C487.622 396.44 494.382 393.64 502.862 393.64C506.622 393.64 510.062 394.44 513.182 396.04C516.302 397.64 518.702 399.84 520.382 402.64V367ZM504.422 440.8C509.782 440.8 513.862 439.12 516.662 435.76C519.542 432.4 520.982 428.16 520.982 423.04C520.982 417.92 519.542 413.68 516.662 410.32C513.862 406.96 509.782 405.28 504.422 405.28C499.382 405.28 495.382 406.96 492.422 410.32C489.542 413.6 488.102 417.84 488.102 423.04C488.102 428.24 489.542 432.52 492.422 435.88C495.382 439.16 499.382 440.8 504.422 440.8ZM563.797 384.28C561.957 386.12 559.637 387.04 556.837 387.04C554.037 387.04 551.717 386.12 549.877 384.28C548.037 382.36 547.117 380.04 547.117 377.32C547.117 374.6 548.037 372.32 549.877 370.48C551.717 368.56 554.037 367.6 556.837 367.6C559.637 367.6 561.957 368.56 563.797 370.48C565.637 372.32 566.557 374.6 566.557 377.32C566.557 380.04 565.637 382.36 563.797 384.28ZM550.237 451V395.08H563.317V451H550.237ZM580.12 451V395.08H593.2V402.88C596.8 396.72 602.88 393.64 611.44 393.64C625.04 393.64 631.84 401.04 631.84 415.84V451H618.76V421.84C618.76 415.76 617.84 411.4 616 408.76C614.16 406.12 611 404.8 606.52 404.8C602.28 404.8 599 406.16 596.68 408.88C594.36 411.52 593.2 415.32 593.2 420.28V451H580.12ZM689.249 395.08H702.329V448.6C702.329 459.8 698.969 467.84 692.249 472.72C687.849 476 681.449 477.64 673.049 477.64C664.889 477.64 658.329 475.96 653.369 472.6C647.689 468.76 644.729 463.68 644.489 457.36H658.169C659.369 463.68 664.289 466.84 672.929 466.84C678.449 466.84 682.529 465.48 685.169 462.76C687.889 460.12 689.249 455.72 689.249 449.56V443.44C687.649 446.16 685.129 448.36 681.689 450.04C678.329 451.64 674.889 452.44 671.369 452.44C662.889 452.44 656.169 449.68 651.209 444.16C646.329 438.56 643.889 431.52 643.889 423.04C643.889 414.64 646.449 407.64 651.569 402.04C656.769 396.44 663.489 393.64 671.729 393.64C675.489 393.64 678.929 394.44 682.049 396.04C685.169 397.64 687.569 399.84 689.249 402.64V395.08ZM673.289 440.8C678.409 440.8 682.449 439.12 685.409 435.76C688.369 432.32 689.849 428.08 689.849 423.04C689.849 418 688.369 413.8 685.409 410.44C682.449 407 678.409 405.28 673.289 405.28C668.409 405.28 664.449 406.96 661.409 410.32C658.449 413.6 656.969 417.84 656.969 423.04C656.969 428.24 658.449 432.52 661.409 435.88C664.449 439.16 668.409 440.8 673.289 440.8ZM780.665 367C789.065 367 795.945 369.76 801.305 375.28C806.745 380.8 809.465 387.84 809.465 396.4C809.465 404.96 806.745 412 801.305 417.52C795.945 423.04 789.065 425.8 780.665 425.8H763.505V451H749.705V367H780.665ZM779.825 413.44C784.385 413.44 788.145 411.84 791.105 408.64C794.145 405.36 795.665 401.28 795.665 396.4C795.665 391.52 794.145 387.48 791.105 384.28C788.145 381 784.385 379.36 779.825 379.36H763.505V413.44H779.825ZM842.346 452.44C833.626 452.44 826.866 449.68 822.066 444.16C817.266 438.64 814.866 431.6 814.866 423.04C814.866 414.56 817.386 407.56 822.426 402.04C827.466 396.44 834.226 393.64 842.706 393.64C846.466 393.64 849.906 394.44 853.026 396.04C856.146 397.64 858.546 399.84 860.226 402.64V395.08H873.306V451H860.226V443.44C858.626 446.16 856.106 448.36 852.666 450.04C849.306 451.64 845.866 452.44 842.346 452.44ZM844.266 440.8C849.626 440.8 853.706 439.12 856.506 435.76C859.386 432.4 860.826 428.16 860.826 423.04C860.826 417.92 859.386 413.68 856.506 410.32C853.706 406.96 849.626 405.28 844.266 405.28C839.226 405.28 835.226 406.96 832.266 410.32C829.386 413.6 827.946 417.84 827.946 423.04C827.946 428.24 829.386 432.52 832.266 435.88C835.226 439.16 839.226 440.8 844.266 440.8ZM931.241 395.08H944.321V448.6C944.321 459.8 940.961 467.84 934.241 472.72C929.841 476 923.441 477.64 915.041 477.64C906.881 477.64 900.321 475.96 895.361 472.6C889.681 468.76 886.721 463.68 886.481 457.36H900.161C901.361 463.68 906.281 466.84 914.921 466.84C920.441 466.84 924.521 465.48 927.161 462.76C929.881 460.12 931.241 455.72 931.241 449.56V443.44C929.641 446.16 927.121 448.36 923.681 450.04C920.321 451.64 916.881 452.44 913.361 452.44C904.881 452.44 898.161 449.68 893.201 444.16C888.321 438.56 885.881 431.52 885.881 423.04C885.881 414.64 888.441 407.64 893.561 402.04C898.761 396.44 905.481 393.64 913.721 393.64C917.481 393.64 920.921 394.44 924.041 396.04C927.161 397.64 929.561 399.84 931.241 402.64V395.08ZM915.281 440.8C920.401 440.8 924.441 439.12 927.401 435.76C930.361 432.32 931.841 428.08 931.841 423.04C931.841 418 930.361 413.8 927.401 410.44C924.441 407 920.401 405.28 915.281 405.28C910.401 405.28 906.441 406.96 903.401 410.32C900.441 413.6 898.961 417.84 898.961 423.04C898.961 428.24 900.441 432.52 903.401 435.88C906.441 439.16 910.401 440.8 915.281 440.8ZM1011.74 420.16C1011.74 421.6 1011.62 424 1011.38 427.36H969.857C970.017 431.76 971.457 435.16 974.177 437.56C976.897 439.88 980.657 441.04 985.457 441.04C991.617 441.04 995.777 438.92 997.937 434.68H1011.14C1010.26 439.88 1007.42 444.16 1002.62 447.52C997.897 450.8 992.177 452.44 985.457 452.44C976.657 452.44 969.697 449.8 964.577 444.52C959.457 439.24 956.897 432.08 956.897 423.04C956.897 414.08 959.417 406.96 964.457 401.68C969.577 396.32 976.417 393.64 984.977 393.64C992.977 393.64 999.417 396.12 1004.3 401.08C1009.26 405.96 1011.74 412.32 1011.74 420.16ZM969.857 417.4H998.897C998.817 413.08 997.537 409.76 995.057 407.44C992.657 405.12 989.217 403.96 984.737 403.96C980.177 403.96 976.577 405.2 973.937 407.68C971.297 410.16 969.937 413.4 969.857 417.4ZM281.892 588V504H310.332C323.612 504 333.972 508.12 341.412 516.36C348.932 524.52 352.692 534.4 352.692 546C352.692 557.6 348.932 567.52 341.412 575.76C333.972 583.92 323.612 588 310.332 588H281.892ZM295.692 575.64H309.132C318.732 575.64 326.012 572.76 330.972 567C336.012 561.24 338.532 554.24 338.532 546C338.532 537.76 336.012 530.76 330.972 525C326.012 519.24 318.732 516.36 309.132 516.36H295.692V575.64ZM415.37 557.16C415.37 558.6 415.25 561 415.01 564.36H373.49C373.65 568.76 375.09 572.16 377.81 574.56C380.53 576.88 384.29 578.04 389.09 578.04C395.25 578.04 399.41 575.92 401.57 571.68H414.77C413.89 576.88 411.05 581.16 406.25 584.52C401.53 587.8 395.81 589.44 389.09 589.44C380.29 589.44 373.33 586.8 368.21 581.52C363.09 576.24 360.53 569.08 360.53 560.04C360.53 551.08 363.05 543.96 368.09 538.68C373.21 533.32 380.05 530.64 388.61 530.64C396.61 530.64 403.05 533.12 407.93 538.08C412.89 542.96 415.37 549.32 415.37 557.16ZM373.49 554.4H402.53C402.45 550.08 401.17 546.76 398.69 544.44C396.29 542.12 392.85 540.96 388.37 540.96C383.81 540.96 380.21 542.2 377.57 544.68C374.93 547.16 373.57 550.4 373.49 554.4ZM447.571 589.44C440.531 589.44 434.811 587.64 430.411 584.04C426.011 580.44 423.811 576.04 423.811 570.84H436.891C436.891 573.24 437.931 575.2 440.011 576.72C442.171 578.24 444.931 579 448.291 579C450.771 579 452.731 578.4 454.171 577.2C455.611 576 456.331 574.4 456.331 572.4C456.331 569.2 454.931 567.24 452.131 566.52L437.731 562.56C429.651 560.32 425.611 555.16 425.611 547.08C425.611 542.44 427.611 538.56 431.611 535.44C435.611 532.24 440.771 530.64 447.091 530.64C454.211 530.64 459.651 532.24 463.411 535.44C467.251 538.64 469.171 542.84 469.171 548.04H456.331C456.331 545.72 455.451 543.92 453.691 542.64C452.011 541.28 449.651 540.6 446.611 540.6C444.291 540.6 442.371 541.16 440.851 542.28C439.331 543.32 438.571 544.68 438.571 546.36C438.571 549.4 440.171 551.4 443.371 552.36L456.691 556.2C460.531 557.32 463.651 559.24 466.051 561.96C468.451 564.6 469.651 567.68 469.651 571.2C469.651 576.64 467.691 581.04 463.771 584.4C459.931 587.76 454.531 589.44 447.571 589.44ZM496.415 521.28C494.575 523.12 492.255 524.04 489.455 524.04C486.655 524.04 484.335 523.12 482.495 521.28C480.655 519.36 479.735 517.04 479.735 514.32C479.735 511.6 480.655 509.32 482.495 507.48C484.335 505.56 486.655 504.6 489.455 504.6C492.255 504.6 494.575 505.56 496.415 507.48C498.255 509.32 499.175 511.6 499.175 514.32C499.175 517.04 498.255 519.36 496.415 521.28ZM482.855 588V532.08H495.935V588H482.855ZM553.897 532.08H566.977V585.6C566.977 596.8 563.617 604.84 556.897 609.72C552.497 613 546.097 614.64 537.697 614.64C529.537 614.64 522.977 612.96 518.017 609.6C512.337 605.76 509.377 600.68 509.137 594.36H522.817C524.017 600.68 528.937 603.84 537.577 603.84C543.097 603.84 547.177 602.48 549.817 599.76C552.537 597.12 553.897 592.72 553.897 586.56V580.44C552.297 583.16 549.777 585.36 546.337 587.04C542.977 588.64 539.537 589.44 536.017 589.44C527.537 589.44 520.817 586.68 515.857 581.16C510.977 575.56 508.537 568.52 508.537 560.04C508.537 551.64 511.097 544.64 516.217 539.04C521.417 533.44 528.137 530.64 536.377 530.64C540.137 530.64 543.577 531.44 546.697 533.04C549.817 534.64 552.217 536.84 553.897 539.64V532.08ZM537.937 577.8C543.057 577.8 547.097 576.12 550.057 572.76C553.017 569.32 554.497 565.08 554.497 560.04C554.497 555 553.017 550.8 550.057 547.44C547.097 544 543.057 542.28 537.937 542.28C533.057 542.28 529.097 543.96 526.057 547.32C523.097 550.6 521.617 554.84 521.617 560.04C521.617 565.24 523.097 569.52 526.057 572.88C529.097 576.16 533.057 577.8 537.937 577.8ZM583.753 588V532.08H596.833V539.88C600.433 533.72 606.513 530.64 615.073 530.64C628.673 530.64 635.473 538.04 635.473 552.84V588H622.393V558.84C622.393 552.76 621.473 548.4 619.633 545.76C617.793 543.12 614.633 541.8 610.153 541.8C605.913 541.8 602.633 543.16 600.313 545.88C597.993 548.52 596.833 552.32 596.833 557.28V588H583.753Z" fill="url(#paint1_linear_401_2)"/>
<defs>
<linearGradient id="paint0_linear_401_2" x1="960" y1="0" x2="960" y2="960" gradientUnits="userSpaceOnUse">
<stop stop-color="#5547FF"/>
<stop offset="1" stop-color="#8F00FF"/>
</linearGradient>
<linearGradient id="paint1_linear_401_2" x1="272.892" y1="422.934" x2="911.169" y2="539.024" gradientUnits="userSpaceOnUse">
<stop stop-color="#FFF500"/>
<stop offset="1" stop-color="#FFDB5D"/>
</linearGradient>
<clipPath id="clip0_401_2">
<rect width="618" height="565" fill="white" transform="translate(1045 197.5)"/>
</clipPath>
</defs>
</svg>
