<svg width="676" height="438" viewBox="0 0 676 438" fill="none" xmlns="http://www.w3.org/2000/svg">
<path d="M636.837 249.826L627.258 315.36C626.997 317.104 626.226 318.679 625.083 319.803C623.94 320.927 622.5 321.526 621.022 321.492L565.35 320.086L545.847 306.215L586.531 305.86L593.76 247.47C593.982 245.711 594.722 244.105 595.846 242.943C596.971 241.782 598.405 241.141 599.889 241.136H630.733C631.635 241.14 632.526 241.38 633.343 241.837C634.16 242.295 634.884 242.961 635.465 243.787C636.046 244.614 636.469 245.583 636.706 246.626C636.943 247.669 636.988 248.761 636.837 249.826Z" fill="#D7DEE2"/>
<path d="M625.73 435.941L605.383 320.739H614.674L630.346 435.88L625.73 435.941Z" fill="#D7DEE2"/>
<path d="M559.791 435.941L580.142 320.739H570.847L555.175 435.88L559.791 435.941Z" fill="#D7DEE2"/>
<path d="M41.1802 249.826L50.7635 315.36C51.024 317.103 51.7945 318.678 52.9366 319.802C54.0787 320.926 55.5176 321.525 56.9952 321.492L112.671 320.086L132.17 306.215L91.4869 305.86L84.2574 247.47C84.04 245.709 83.3017 244.101 82.1772 242.938C81.0527 241.776 79.6169 241.136 78.1317 241.136H47.284C46.3821 241.14 45.4917 241.38 44.6746 241.837C43.8576 242.295 43.1336 242.961 42.5527 243.787C41.9719 244.614 41.5483 245.583 41.3113 246.626C41.0743 247.669 41.0296 248.761 41.1802 249.826Z" fill="#D7DEE2"/>
<path d="M52.2876 435.941L72.6383 320.739H63.3438L47.6751 435.88L52.2876 435.941Z" fill="#D7DEE2"/>
<path d="M118.23 435.941L97.8793 320.739H107.174L122.843 435.88L118.23 435.941Z" fill="#D7DEE2"/>
<path d="M467.752 249.826L458.169 315.36C457.909 317.099 457.141 318.671 456.003 319.795C454.865 320.918 453.43 321.52 451.956 321.492L396.283 320.086L376.781 306.214L417.464 305.86L424.675 247.47C424.893 245.709 425.631 244.1 426.757 242.937C427.882 241.774 429.319 241.135 430.804 241.136H461.648C462.55 241.14 463.441 241.38 464.258 241.837C465.075 242.295 465.799 242.961 466.38 243.787C466.961 244.614 467.384 245.583 467.621 246.626C467.858 247.669 467.903 248.761 467.752 249.826Z" fill="#D7DEE2"/>
<path d="M456.645 435.941L436.294 320.739H445.589L461.261 435.88L456.645 435.941Z" fill="#D7DEE2"/>
<path d="M390.702 435.941L411.053 320.739H401.759L386.09 435.88L390.702 435.941Z" fill="#D7DEE2"/>
<path d="M218.997 414.339L247.889 438L193.548 437.268L193.763 414.002L218.997 414.339Z" fill="#0A2255"/>
<path d="M108.27 249.445L202.067 285.068C211.395 287.381 217.012 293.302 216.917 303.236L225.254 414.427L183.383 413.862L174.827 326.358L101.673 318.667C101.673 318.667 78.8993 318.667 68.8116 286.329V259.559L108.27 249.445Z" fill="#6D5652"/>
<path d="M123.537 262.905C123.537 262.905 108.819 266.435 97.2215 265.726L153.252 284.45C156.357 285.523 159.164 287.58 161.375 290.405C163.587 293.229 165.121 296.716 165.817 300.499L168.599 325.701L123.829 320.296L73.6435 262.918L123.537 262.905Z" fill="#493734"/>
<path d="M164.165 414.339L193.054 438L138.712 437.268L138.932 414.002L164.165 414.339Z" fill="#0A2255"/>
<path d="M60.3248 256.799L147.236 285.068C156.563 287.381 162.177 293.302 162.086 303.236L170.423 414.427L128.552 413.862L119.992 326.358L84.0125 318.667C84.0125 318.667 52.58 316.954 51.1509 286.329C51.1692 286.329 51.1692 260.172 60.3248 256.799Z" fill="#6D5652"/>
<path d="M59.4623 160.124L63.0624 154.68C63.5262 153.979 63.8309 153.146 63.9469 152.262L65.1457 143.025C65.3172 141.7 65.9107 140.507 66.8014 139.696L70.9424 135.933C71.764 135.186 72.3357 134.111 72.5543 132.902L74.093 124.392C74.093 124.392 76.9073 103.061 96.6148 106.434C96.6148 106.434 103.822 107.288 106.849 115.934C107.057 116.704 107.164 117.508 107.163 118.317V140.453C107.165 141.168 107.289 141.875 107.528 142.53L109.356 147.497C109.686 148.403 109.793 149.403 109.663 150.38C109.534 151.356 109.173 152.268 108.625 153.007C108.058 153.771 107.692 154.72 107.575 155.734C107.458 156.747 107.594 157.78 107.967 158.701L109.729 163.059C109.993 163.701 110.142 164.404 110.165 165.12C110.187 165.836 110.084 166.55 109.86 167.215C108.223 172.06 102.382 182.567 82.7808 180.855C63.7532 179.19 59.5427 169.265 58.6289 164.421C58.4905 163.676 58.4935 162.903 58.6377 162.159C58.782 161.415 59.0637 160.72 59.4623 160.124Z" fill="#2C2C6D"/>
<path d="M83.1171 117.498C83.1171 117.498 78.5813 122.158 79.495 131.028C80.9314 145.149 75.7085 145.85 73.479 147.799" stroke="white" stroke-miterlimit="10"/>
<path d="M125.321 157.575V256.966C125.321 258.541 124.799 260.052 123.869 261.166C122.94 262.279 121.679 262.905 120.365 262.905H61.1837C59.8693 262.905 58.6087 262.279 57.6792 261.166C56.7498 260.052 56.2276 258.541 56.2276 256.966V172.432C56.2276 168.494 57.533 164.717 59.8567 161.933C62.1803 159.148 65.3318 157.584 68.6179 157.584L125.321 157.575Z" fill="#00C3DE"/>
<path d="M85.1602 129.525L81.2165 157.557C81.2165 157.557 87.0169 164.565 93.2084 163.996C99.3998 163.427 104.349 157.693 104.349 157.693L100.328 123.941C100.328 123.941 88.1061 118.584 85.1602 129.525Z" fill="#FFC5C0"/>
<path d="M103.515 150.672C101.648 150.751 99.7906 150.315 98.0856 149.4C96.3806 148.484 94.8734 147.112 93.6798 145.39C93.6798 145.39 100.482 141.448 103.036 146.669L103.515 150.672Z" fill="#FF9198"/>
<path d="M104.356 111.817C104.356 111.817 114.564 143.257 103.037 146.66C103.037 146.66 88.9467 150.852 84.3122 135.644L85.1273 115.435C85.1273 115.435 91.666 103.609 104.356 111.817Z" fill="#FFC5C0"/>
<path d="M106.293 118.882C106.293 118.882 99.9334 121.072 96.4247 119.403L105.138 114.971C105.138 114.971 105.712 116.123 106.293 118.882Z" fill="#FF9198"/>
<path d="M106.293 118.882C106.293 118.882 102.602 121.852 96.4247 119.403C96.4247 119.403 92.9233 134.484 84.3195 135.644L84.3853 115.435C84.3853 115.435 91.6221 102.483 104.363 111.817C104.356 111.817 106.359 116.166 106.293 118.882Z" fill="#2C2C6D"/>
<path d="M90.299 132.416C92.5517 132.416 94.3779 130.228 94.3779 127.528C94.3779 124.828 92.5517 122.64 90.299 122.64C88.0463 122.64 86.2201 124.828 86.2201 127.528C86.2201 130.228 88.0463 132.416 90.299 132.416Z" fill="#FFC5C0"/>
<path d="M255.422 228.001L236.354 226.008L238.891 249.13L254.358 249.691C255.692 249.739 257.019 249.435 258.243 248.799C259.467 248.162 260.559 247.21 261.441 246.01C262.323 244.81 262.973 243.391 263.344 241.855C263.716 240.319 263.8 238.704 263.591 237.124C263.273 234.73 262.297 232.531 260.817 230.878C259.336 229.225 257.438 228.212 255.422 228.001Z" fill="#FFC5C0"/>
<path d="M241.146 226.507L243.503 249.296L238.891 249.13L236.354 226.008L241.146 226.507Z" fill="#FF9198"/>
<path d="M256.943 222.942C256.756 222.07 256.288 221.323 255.642 220.864C254.996 220.405 254.224 220.272 253.496 220.494L242.184 224.09C242.184 224.09 237.067 225.101 236.738 226.385L244.516 227.515L246.036 229.77L254.903 227.055C255.627 226.831 256.248 226.273 256.63 225.502C257.012 224.732 257.125 223.811 256.943 222.942Z" fill="#FFC5C0"/>
<path d="M133.796 163.422L169.052 222.705L238.573 220.047L239.008 224.602L239.037 224.909L241.193 247.685L241.522 251.127L168.749 254.277C163.135 254.518 157.619 252.467 153.106 248.46L112.243 195.685C112.243 195.685 102.638 165.66 133.807 163.422" fill="#00C3DE"/>
<path d="M121.465 198.891C131.055 198.891 138.829 189.575 138.829 178.082C138.829 166.589 131.055 157.273 121.465 157.273C111.874 157.273 104.1 166.589 104.1 178.082C104.1 189.575 111.874 198.891 121.465 198.891Z" fill="#00C3DE"/>
<path d="M123.515 210.24L127.254 215.058C130.242 210.289 131.618 204.346 131.11 198.414L123.515 210.24Z" fill="#0099DD"/>
<path d="M107.821 157.579C107.821 157.579 107.868 171.661 92.8355 171.661C77.8028 171.661 78.1098 157.579 78.1098 157.579H107.821Z" fill="#FFC5C0"/>
<path d="M116.231 216.223C124.446 216.223 131.106 208.242 131.106 198.397C131.106 188.551 124.446 180.57 116.231 180.57C108.015 180.57 101.355 188.551 101.355 198.397C101.355 208.242 108.015 216.223 116.231 216.223Z" fill="#00C3DE"/>
<path d="M125.321 212.504C125.321 212.504 122.74 216.232 116.231 216.223C116.231 216.223 121.304 219.81 125.321 218.61V212.504Z" fill="#0099DD"/>
<path d="M186.998 213.543L192.031 247.032C192.132 247.711 192.428 248.326 192.867 248.772C193.306 249.218 193.86 249.467 194.436 249.476L205.846 249.66C206.471 249.67 207.075 249.397 207.538 248.896C208.002 248.395 208.29 247.703 208.346 246.958L210.89 213.543H186.998Z" fill="white"/>
<path d="M206.332 249.607C206.261 249.621 206.189 249.63 206.117 249.635C206.189 249.63 206.261 249.621 206.332 249.607Z" fill="#5CC8F7"/>
<path d="M207.966 227.278L206.504 246.76C206.49 246.946 206.417 247.118 206.301 247.242C206.185 247.366 206.035 247.434 205.879 247.431L194.469 247.251C194.324 247.248 194.185 247.184 194.075 247.072C193.965 246.959 193.891 246.804 193.865 246.633L190.96 227.278H207.966Z" fill="#5CC8F7"/>
<path d="M56.2276 200.385L91.6806 247.939C93.758 250.727 96.3004 252.961 99.1436 254.498C101.987 256.035 105.067 256.84 108.186 256.861L125.306 256.966V218.61L114.235 218.855L93.6652 190.175L56.213 194.073L56.2276 200.385Z" fill="#0099DD"/>
<path d="M199.395 228.001L180.324 226.008L182.86 249.13L198.332 249.691C199.666 249.739 200.992 249.435 202.216 248.799C203.441 248.162 204.533 247.21 205.414 246.01C206.296 244.81 206.946 243.391 207.318 241.855C207.689 240.319 207.774 238.704 207.564 237.124C207.246 234.73 206.269 232.532 204.789 230.879C203.309 229.226 201.411 228.213 199.395 228.001Z" fill="#FFC5C0"/>
<path d="M185.119 226.507L187.477 249.296L182.86 249.13L180.328 226.008L185.119 226.507Z" fill="#FF9198"/>
<path d="M200.909 222.942C200.721 222.07 200.252 221.322 199.606 220.863C198.959 220.404 198.187 220.271 197.458 220.494L186.15 224.09C186.15 224.09 181.033 225.101 180.7 226.385L188.478 227.541L189.995 229.797L198.865 227.081C199.227 226.971 199.566 226.776 199.865 226.508C200.163 226.24 200.414 225.904 200.604 225.52C200.794 225.135 200.919 224.71 200.971 224.267C201.023 223.825 201.002 223.375 200.909 222.942Z" fill="#FFC5C0"/>
<path d="M77.7699 163.422L113.025 222.705L182.546 220.047L182.981 224.602L183.007 224.909L185.163 247.685L185.492 251.127L112.718 254.277C107.105 254.517 101.589 252.467 97.0753 248.46L56.2167 195.685C56.2167 195.685 46.6078 165.66 77.7808 163.422" fill="#00C3DE"/>
<path d="M65.4381 198.891C75.0283 198.891 82.8027 189.575 82.8027 178.082C82.8027 166.589 75.0283 157.273 65.4381 157.273C55.8479 157.273 48.0735 166.589 48.0735 178.082C48.0735 189.575 55.8479 198.891 65.4381 198.891Z" fill="#00C3DE"/>
<path d="M131.11 220.051L132.587 221.956L168.04 221.002L165.902 217.41L131.11 220.051Z" fill="#0099DD"/>
<path d="M78.8152 114.971C84.8426 114.971 89.7288 109.115 89.7288 101.892C89.7288 94.6688 84.8426 88.8133 78.8152 88.8133C72.7877 88.8133 67.9015 94.6688 67.9015 101.892C67.9015 109.115 72.7877 114.971 78.8152 114.971Z" fill="#2C2C6D"/>
<path d="M280.367 412.285L251.475 435.941L305.816 435.214L305.601 411.943L280.367 412.285Z" fill="#0A2255"/>
<path d="M397.292 247.387L303.492 283.014C294.164 285.322 288.547 291.244 288.642 301.178L274.121 412.368L315.992 411.808L330.743 324.3L403.871 316.613C403.871 316.613 426.645 316.613 436.733 284.271V257.505L397.292 247.387Z" fill="#80CEB4"/>
<path d="M382.04 260.851C382.04 260.851 396.759 264.377 408.356 263.667L352.336 282.396C349.231 283.469 346.425 285.526 344.213 288.351C342.002 291.175 340.467 294.662 339.771 298.444L336.986 323.643L381.722 318.242L431.908 260.864L382.04 260.851Z" fill="#65C4A1"/>
<path d="M382.519 412.285L358.586 435.941L412.928 435.214L406.514 411.943L382.519 412.285Z" fill="#0A2255"/>
<path d="M445.234 254.741L358.323 283.014C350.699 284.901 345.553 289.207 343.981 296.154C343.431 298.672 343.491 301.326 344.153 303.806L372.296 412.377L414.167 411.816L389.314 323.507L421.532 316.621C421.532 316.621 452.964 314.909 454.393 284.279C454.408 284.262 454.408 258.1 445.234 254.741Z" fill="#80CEB4"/>
<path d="M391.123 329.88C391.123 329.88 379.061 321.001 384.094 318.693C389.127 316.385 395.399 322.197 395.399 322.197L389.328 323.511L391.123 329.88Z" fill="#65C4A1"/>
<path d="M380.238 155.516V254.916C380.238 256.491 380.76 258.002 381.69 259.116C382.619 260.23 383.88 260.855 385.194 260.855H444.375C445.69 260.855 446.95 260.23 447.88 259.116C448.809 258.002 449.331 256.491 449.331 254.916V170.382C449.332 168.432 449.012 166.5 448.389 164.698C447.767 162.896 446.854 161.259 445.704 159.88C444.553 158.501 443.187 157.407 441.684 156.66C440.18 155.914 438.569 155.529 436.941 155.529L380.238 155.516Z" fill="#DEFAFC"/>
<path d="M404.08 127.458L400.136 155.49C400.136 155.49 405.936 162.498 412.128 161.933C418.319 161.368 423.268 155.626 423.268 155.626L419.248 121.878C419.248 121.878 407.022 116.53 404.08 127.458Z" fill="#FFC5C0"/>
<path d="M422.427 148.609C420.56 148.686 418.703 148.251 416.998 147.335C415.293 146.419 413.786 145.048 412.592 143.327C412.592 143.327 419.394 139.385 421.952 144.606L422.427 148.609Z" fill="#FF9198"/>
<path d="M423.268 109.758C423.268 109.758 433.476 141.198 421.952 144.606C421.952 144.606 407.859 148.793 403.224 133.59L404.043 113.376C404.043 113.376 410.578 101.555 423.268 109.758Z" fill="#FFC5C0"/>
<path d="M425.205 116.828L425.731 119.14C425.731 119.14 419.127 120.678 415.329 117.349L425.205 116.828Z" fill="#FF9198"/>
<path d="M425.205 116.828C425.205 116.828 418.845 119.018 415.337 117.349L424.05 112.912C424.05 112.912 424.624 114.064 425.205 116.828Z" fill="#FF9198"/>
<path d="M425.205 116.828C425.205 116.828 421.514 119.797 415.337 117.349C415.337 117.349 411.839 132.425 403.232 133.59L403.29 116.175C403.289 115.154 403.466 114.145 403.809 113.21C404.152 112.276 404.654 111.438 405.282 110.748C408.242 107.538 414.419 103.302 423.275 109.758C423.268 109.758 425.271 114.112 425.205 116.828Z" fill="#1E1E3C"/>
<path d="M409.211 130.362C411.464 130.362 413.29 128.174 413.29 125.474C413.29 122.774 411.464 120.586 409.211 120.586C406.958 120.586 405.132 122.774 405.132 125.474C405.132 128.174 406.958 130.362 409.211 130.362Z" fill="#FFC5C0"/>
<path d="M371.763 161.364L336.507 220.647L312.83 217.988L336.81 252.218C342.424 252.46 347.94 250.409 352.453 246.401L393.316 193.627C393.316 193.627 402.925 163.602 371.752 161.364" fill="#DEFAFC"/>
<path d="M384.094 196.837C393.684 196.837 401.459 187.521 401.459 176.028C401.459 164.535 393.684 155.218 384.094 155.218C374.504 155.218 366.73 164.535 366.73 176.028C366.73 187.521 374.504 196.837 384.094 196.837Z" fill="#DEFAFC"/>
<path d="M288.28 155.131L303.075 176.028L286.5 188.121L275.345 166.471C275.345 166.471 279.439 154.75 288.28 155.131Z" fill="#FFC5C0"/>
<path d="M270.831 145.823L287.743 144.759L288.649 163.939L275.338 166.471C274.064 166.947 272.718 167.081 271.396 166.862C270.074 166.644 268.809 166.079 267.69 165.207C266.571 164.335 265.627 163.179 264.924 161.819C264.221 160.46 263.777 158.931 263.624 157.343C263.437 155.404 263.689 153.44 264.354 151.658C265.019 149.877 266.072 148.342 267.403 147.216C268.415 146.379 269.603 145.897 270.831 145.823Z" fill="#FFC5C0"/>
<path d="M284.895 135.495C285.267 135.485 285.637 135.563 285.984 135.725C286.331 135.887 286.648 136.128 286.917 136.437C287.186 136.745 287.401 137.114 287.551 137.522C287.701 137.93 287.782 138.37 287.79 138.815L287.947 152.831C287.947 152.831 288.51 159.003 287.582 159.734L284.556 151.075L282.337 149.927L282.132 138.977C282.123 138.531 282.186 138.087 282.32 137.671C282.454 137.254 282.655 136.873 282.911 136.55C283.168 136.226 283.475 135.967 283.816 135.786C284.156 135.605 284.523 135.506 284.895 135.495Z" fill="#FFC5C0"/>
<path d="M290.177 157.868L277.556 171.622L278.755 173.492L292.271 160.895L290.177 157.868Z" fill="#FF9198"/>
<path d="M341.331 220.621L294.826 158.635L291.778 161.412L291.577 161.6L276.365 175.498L274.062 177.596L322.53 242.726C326.27 247.75 331.323 251.101 336.861 252.231" fill="#DEFAFC"/>
<path d="M397.746 155.521C397.746 155.521 397.698 169.602 412.731 169.602C427.764 169.602 427.457 155.521 427.457 155.521H397.746Z" fill="#FFC5C0"/>
<path d="M449.331 198.331L413.878 245.884C411.799 248.673 409.255 250.908 406.41 252.444C403.565 253.98 400.482 254.784 397.362 254.802L380.238 254.912V216.556L391.309 216.801L411.879 188.121L449.331 192.019V198.331Z" fill="#C5F8F9"/>
<path d="M292.944 213.543L297.977 247.032C298.078 247.711 298.374 248.326 298.813 248.772C299.252 249.218 299.806 249.467 300.382 249.476L311.792 249.66C312.416 249.67 313.021 249.397 313.484 248.896C313.947 248.395 314.236 247.703 314.292 246.958L316.821 213.543H292.944Z" fill="white"/>
<path d="M312.283 249.607C312.209 249.607 312.136 249.607 312.063 249.635C312.132 249.626 312.209 249.626 312.283 249.607Z" fill="#5CC8F7"/>
<path d="M313.919 227.278L312.457 246.76C312.441 246.946 312.367 247.117 312.251 247.241C312.135 247.365 311.984 247.433 311.829 247.431L300.418 247.251C300.274 247.247 300.135 247.183 300.025 247.071C299.915 246.958 299.841 246.804 299.815 246.633L296.909 227.278H313.919Z" fill="#5CC8F7"/>
<path d="M306.164 225.947L325.235 223.954L322.699 247.076L307.227 247.636C305.893 247.685 304.567 247.379 303.342 246.743C302.118 246.106 301.026 245.153 300.145 243.953C299.263 242.752 298.613 241.333 298.241 239.797C297.87 238.261 297.786 236.645 297.995 235.066C298.313 232.672 299.29 230.474 300.77 228.822C302.25 227.17 304.149 226.158 306.164 225.947Z" fill="#FFC5C0"/>
<path d="M320.44 224.453L318.082 247.242L322.699 247.076L325.235 223.954L320.44 224.453Z" fill="#FF9198"/>
<path d="M304.65 220.866C304.743 220.434 304.905 220.028 305.128 219.671C305.351 219.314 305.63 219.013 305.951 218.786C306.271 218.559 306.625 218.409 306.993 218.346C307.362 218.283 307.737 218.307 308.097 218.417L319.405 222.013C319.405 222.013 324.522 223.021 324.855 224.304L317.081 225.465L315.56 227.721L306.69 225.001C305.962 224.776 305.339 224.214 304.956 223.439C304.574 222.664 304.464 221.738 304.65 220.866Z" fill="#FFC5C0"/>
<path d="M427.793 161.364L392.541 220.647L323.017 217.988L322.582 222.548L322.556 222.85L320.4 245.626L320.074 249.069L392.848 252.205C398.462 252.446 403.977 250.395 408.491 246.388L449.35 193.614C449.35 193.614 458.958 163.589 427.785 161.35" fill="#DEFAFC"/>
<path d="M440.121 196.837C449.711 196.837 457.486 187.521 457.486 176.028C457.486 164.535 449.711 155.218 440.121 155.218C430.531 155.218 422.756 164.535 422.756 176.028C422.756 187.521 430.531 196.837 440.121 196.837Z" fill="#DEFAFC"/>
<path d="M374.449 217.993L372.972 219.902L337.519 218.947L339.657 215.351L374.449 217.993Z" fill="#C5F8F9"/>
<path d="M413.469 106.434C413.469 106.434 417.38 106.088 419.277 102.759C423.641 95.1073 430.549 102.15 430.56 106.881C430.56 113.337 425.205 116.845 425.205 116.845C425.205 116.845 424.032 105.935 413.469 106.434Z" fill="#1E1E3C"/>
<path d="M448.016 412.285L419.127 435.941L473.469 435.214L473.253 411.943L448.016 412.285Z" fill="#0A2255"/>
<path d="M564.941 247.387L471.144 283.014C461.817 285.322 456.199 291.244 456.294 301.178L441.758 412.368L483.629 411.808L498.384 324.3L571.538 316.613C571.538 316.613 594.312 316.613 604.4 284.271V257.505L564.941 247.387Z" fill="#6D5652"/>
<path d="M549.703 260.851C549.703 260.851 564.422 264.377 576.019 263.667L519.989 282.396C516.883 283.469 514.077 285.526 511.865 288.351C509.654 291.175 508.119 294.662 507.423 298.444L504.642 323.643L549.378 318.242L599.564 260.864L549.703 260.851Z" fill="#493734"/>
<path d="M550.171 412.285L526.239 435.941L580.577 435.214L574.166 411.943L550.171 412.285Z" fill="#0A2255"/>
<path d="M612.886 254.741L525.975 283.014C518.348 284.901 513.205 289.207 511.634 296.154C511.083 298.672 511.143 301.326 511.805 303.806L539.948 412.377L581.819 411.816L556.966 323.507L589.184 316.621C589.184 316.621 620.617 314.909 622.046 284.279C622.071 284.262 622.071 258.1 612.886 254.741Z" fill="#6D5652"/>
<path d="M558.775 329.88C558.775 329.88 546.714 321.001 551.747 318.693C556.779 316.385 563.051 322.197 563.051 322.197L556.98 323.511L558.775 329.88Z" fill="#493734"/>
<path d="M613.749 158.065L610.149 152.625C609.685 151.923 609.38 151.088 609.264 150.203L608.066 140.97C607.895 139.645 607.302 138.451 606.41 137.642L602.269 133.875C601.447 133.129 600.875 132.056 600.657 130.848L599.118 122.316C599.118 122.316 596.304 100.99 576.597 104.358C576.597 104.358 569.389 105.212 566.363 113.862C566.156 114.631 566.05 115.433 566.048 116.241V138.377C566.049 139.092 565.924 139.8 565.683 140.453L563.855 145.42C563.525 146.327 563.419 147.328 563.548 148.306C563.678 149.283 564.038 150.195 564.586 150.935C565.155 151.699 565.52 152.648 565.638 153.662C565.755 154.676 565.618 155.708 565.244 156.629L563.483 160.987C563.219 161.63 563.071 162.332 563.048 163.048C563.026 163.765 563.129 164.478 563.351 165.144C564.988 169.988 570.829 180.5 590.431 178.787C609.458 177.123 613.669 167.193 614.582 162.353C614.719 161.609 614.715 160.838 614.571 160.096C614.427 159.354 614.146 158.66 613.749 158.065Z" fill="#1E1E3C"/>
<path d="M590.094 115.439C590.094 115.439 594.623 120.104 593.72 128.973C592.28 143.09 597.503 143.795 599.732 145.74" stroke="white" stroke-miterlimit="10"/>
<path d="M547.876 155.516V254.916C547.876 256.491 548.398 258.002 549.328 259.116C550.257 260.229 551.518 260.855 552.832 260.855H612.013C612.665 260.858 613.311 260.706 613.914 260.408C614.517 260.111 615.065 259.674 615.527 259.122C615.989 258.57 616.355 257.915 616.605 257.193C616.855 256.471 616.984 255.697 616.984 254.916V170.382C616.984 168.432 616.664 166.5 616.042 164.698C615.419 162.896 614.506 161.259 613.356 159.88C612.205 158.501 610.839 157.407 609.336 156.66C607.832 155.914 606.221 155.529 604.593 155.529L547.876 155.516Z" fill="#FFD364"/>
<path d="M588.044 127.458L591.987 155.49C591.987 155.49 586.187 162.498 579.996 161.933C573.804 161.368 568.855 155.626 568.855 155.626L572.876 121.878C572.876 121.878 585.105 116.53 588.044 127.458Z" fill="#FFC5C0"/>
<path d="M569.696 148.609C571.563 148.686 573.42 148.251 575.125 147.335C576.83 146.419 578.337 145.048 579.531 143.327C579.531 143.327 572.73 139.385 570.175 144.606L569.696 148.609Z" fill="#FF9198"/>
<path d="M568.855 109.758C568.855 109.758 558.647 141.198 570.175 144.606C570.175 144.606 584.265 148.793 588.899 133.59L588.08 113.376C588.08 113.376 581.545 101.555 568.855 109.758Z" fill="#FFC5C0"/>
<path d="M566.918 116.828C566.918 116.828 573.278 119.018 576.787 117.349L568.073 112.912C568.073 112.912 567.499 114.064 566.918 116.828Z" fill="#FF9198"/>
<path d="M566.918 116.828C566.918 116.828 570.613 119.797 576.787 117.349C576.787 117.349 580.288 132.425 588.892 133.59L588.826 113.376C588.826 113.376 581.589 100.429 568.848 109.758C568.855 109.758 566.852 114.112 566.918 116.828Z" fill="#1E1E3C"/>
<path d="M582.912 130.362C585.165 130.362 586.991 128.174 586.991 125.474C586.991 122.774 585.165 120.586 582.912 120.586C580.66 120.586 578.833 122.774 578.833 125.474C578.833 128.174 580.66 130.362 582.912 130.362Z" fill="#FFC5C0"/>
<path d="M539.415 161.364L504.159 220.647L480.482 217.988L504.462 252.218C510.076 252.46 515.592 250.409 520.106 246.401L560.968 193.627C560.968 193.627 570.573 163.602 539.404 161.364" fill="#FFD364"/>
<path d="M551.747 196.837C561.337 196.837 569.111 187.521 569.111 176.028C569.111 164.535 561.337 155.218 551.747 155.218C542.156 155.218 534.382 164.535 534.382 176.028C534.382 187.521 542.156 196.837 551.747 196.837Z" fill="#FFD364"/>
<path d="M446.024 149.564L460.42 164.688L444.737 178.494L433.692 165.498C432.74 164.378 432.006 163.019 431.543 161.519C431.08 160.02 430.898 158.416 431.011 156.823C431.124 155.23 431.529 153.686 432.197 152.302C432.865 150.918 433.78 149.727 434.876 148.815C436.538 147.433 438.538 146.756 440.557 146.892C442.577 147.028 444.501 147.968 446.024 149.564Z" fill="#FFC5C0"/>
<path d="M456.802 160.882L441.444 174.613L444.737 178.489L460.42 164.684L456.802 160.882Z" fill="#FF9198"/>
<path d="M448.038 144.741C448.692 144.3 449.466 144.188 450.19 144.429C450.913 144.67 451.527 145.246 451.897 146.029L457.559 158.293C457.559 158.293 460.483 163.418 459.945 164.596L453.867 158.67L451.459 158.915L446.963 149.358C446.597 148.574 446.504 147.649 446.706 146.784C446.907 145.919 447.386 145.185 448.038 144.741Z" fill="#FFC5C0"/>
<path d="M508.984 220.621L462.475 158.635L459.43 161.412L459.229 161.6L444.013 175.498L441.714 177.596L490.183 242.726C493.922 247.75 498.976 251.101 504.514 252.231" fill="#FFD364"/>
<path d="M549.703 208.186L545.964 213.004C542.971 208.227 541.594 202.271 542.108 196.329L549.703 208.186Z" fill="#FFBD66"/>
<path d="M565.398 155.521C565.398 155.521 565.35 169.602 580.383 169.602C595.416 169.602 595.109 155.521 595.109 155.521H565.398Z" fill="#FFC5C0"/>
<path d="M556.98 214.164C565.196 214.164 571.856 206.183 571.856 196.338C571.856 186.492 565.196 178.511 556.98 178.511C548.765 178.511 542.105 186.492 542.105 196.338C542.105 206.183 548.765 214.164 556.98 214.164Z" fill="#FFD364"/>
<path d="M547.876 210.45C547.876 210.45 550.456 214.178 556.966 214.169C556.966 214.169 551.893 217.752 547.876 216.556V210.45Z" fill="#FFBD66"/>
<path d="M616.984 198.331L581.531 245.884C579.452 248.673 576.907 250.908 574.062 252.444C571.217 253.98 568.135 254.784 565.014 254.802L547.876 254.916V216.556L558.947 216.801L579.517 188.121L616.969 192.019L616.984 198.331Z" fill="#FFBD66"/>
<path d="M460.23 213.543L465.274 247.032C465.376 247.711 465.672 248.327 466.112 248.773C466.551 249.219 467.107 249.468 467.683 249.476L479.09 249.66C479.714 249.67 480.319 249.397 480.783 248.896C481.247 248.395 481.537 247.703 481.594 246.958L484.123 213.543H460.23Z" fill="white"/>
<path d="M479.565 249.607C479.493 249.621 479.422 249.63 479.349 249.635C479.422 249.63 479.493 249.621 479.565 249.607Z" fill="#5CC8F7"/>
<path d="M481.202 227.278L479.74 246.76C479.724 246.945 479.651 247.116 479.536 247.24C479.42 247.364 479.27 247.432 479.115 247.431L467.701 247.251C467.557 247.247 467.418 247.184 467.309 247.071C467.2 246.958 467.126 246.804 467.102 246.633L464.178 227.278H481.202Z" fill="#5CC8F7"/>
<path d="M473.816 225.947L492.887 223.954L490.351 247.076L474.879 247.636C473.545 247.685 472.219 247.379 470.995 246.743C469.77 246.106 468.678 245.153 467.797 243.953C466.915 242.752 466.265 241.333 465.894 239.797C465.522 238.261 465.438 236.645 465.647 235.066C465.965 232.672 466.942 230.474 468.422 228.822C469.902 227.17 471.801 226.158 473.816 225.947Z" fill="#FFC5C0"/>
<path d="M488.092 224.453L485.735 247.242L490.351 247.076L492.887 223.954L488.092 224.453Z" fill="#FF9198"/>
<path d="M472.303 220.866C472.489 219.993 472.958 219.245 473.605 218.786C474.252 218.327 475.024 218.194 475.753 218.417L487.061 222.013C487.061 222.013 492.178 223.021 492.511 224.304L484.733 225.465L483.216 227.721L474.346 225.001C473.985 224.89 473.646 224.696 473.348 224.428C473.05 224.161 472.798 223.825 472.609 223.441C472.419 223.057 472.294 222.632 472.242 222.19C472.189 221.748 472.21 221.298 472.303 220.866Z" fill="#FFC5C0"/>
<path d="M595.445 161.364L560.189 220.647L490.665 217.988L490.23 222.548L490.205 222.85L488.048 245.626L487.723 249.069L560.496 252.205C566.11 252.446 571.626 250.395 576.14 246.388L616.998 193.614C616.998 193.614 626.607 163.589 595.434 161.35" fill="#FFD364"/>
<path d="M607.773 196.837C617.363 196.837 625.138 187.521 625.138 176.028C625.138 164.535 617.363 155.218 607.773 155.218C598.183 155.218 590.409 164.535 590.409 176.028C590.409 187.521 598.183 196.837 607.773 196.837Z" fill="#FFD364"/>
<path d="M542.101 217.993L540.624 219.902L505.172 218.947L507.31 215.351L542.101 217.993Z" fill="#FFBD66"/>
<path d="M581.659 435.941L553.117 263.076H564.272L586.275 435.88L581.659 435.941Z" fill="#A89A7B"/>
<path d="M86.6331 435.941L115.175 263.076H104.023L82.0206 435.88L86.6331 435.941Z" fill="#A89A7B"/>
<path d="M587.335 249.713H84.5315V263.076H587.335V249.713Z" fill="#EAE7DF"/>
<path d="M637.952 366.829C636.845 366.829 635.764 366.421 634.857 365.66C633.949 364.899 633.259 363.823 632.879 362.576C625.686 338.999 614.517 327.221 614.403 327.098C613.316 325.982 612.643 324.394 612.532 322.683C612.422 320.972 612.883 319.278 613.815 317.975C614.746 316.672 616.072 315.865 617.5 315.733C618.927 315.601 620.34 316.153 621.428 317.27C621.973 317.826 634.794 331.159 643.021 358.131C643.319 359.108 643.416 360.158 643.304 361.19C643.191 362.222 642.873 363.206 642.375 364.059C641.878 364.912 641.216 365.609 640.446 366.091C639.676 366.572 638.821 366.824 637.952 366.825V366.829Z" fill="#82CC62"/>
<path d="M639.348 403.507L638.745 403.411C642.035 373.364 636.15 352.967 630.635 341.145C624.659 328.334 617.817 322.552 617.751 322.495L618.117 321.895C618.186 321.956 625.123 327.808 631.165 340.729C636.717 352.673 642.66 373.237 639.348 403.507Z" fill="#F7F1D2"/>
<path d="M641.775 365.804C642.674 365.804 643.551 365.473 644.288 364.856C645.025 364.239 645.586 363.365 645.894 362.353C651.742 343.208 660.806 333.647 660.88 333.55C661.339 333.11 661.721 332.563 662.001 331.943C662.28 331.322 662.453 330.641 662.509 329.939C662.564 329.236 662.501 328.528 662.323 327.856C662.146 327.183 661.857 326.561 661.474 326.025C661.091 325.489 660.622 325.051 660.095 324.737C659.568 324.423 658.994 324.239 658.406 324.197C657.819 324.154 657.23 324.254 656.676 324.49C656.121 324.726 655.612 325.093 655.178 325.57C654.736 326.008 644.326 336.844 637.634 358.744C637.392 359.538 637.313 360.39 637.404 361.228C637.495 362.066 637.754 362.865 638.158 363.558C638.562 364.251 639.099 364.817 639.724 365.208C640.349 365.599 641.044 365.804 641.749 365.804H641.775Z" fill="#82CC62"/>
<path d="M636.859 396.022H636.249C636.476 372.738 642.327 355.844 647.214 345.77C652.495 334.847 657.813 329.35 657.857 329.297L658.252 329.853C658.2 329.906 652.956 335.342 647.725 346.169C642.883 356.151 637.082 372.913 636.859 396.022Z" fill="#F7F1D2"/>
<path d="M640.69 281.332H635.485C633.418 281.332 631.742 283.34 631.742 285.817V347.952C631.742 350.429 633.418 352.437 635.485 352.437H640.69C642.757 352.437 644.432 350.429 644.432 347.952V285.817C644.432 283.34 642.757 281.332 640.69 281.332Z" fill="#95D67C"/>
<path d="M638.394 295.908H637.784V407.471H638.394V295.908Z" fill="#F7F1D2"/>
<path d="M626.541 373.031C625.293 373.032 624.074 372.573 623.051 371.716C622.028 370.859 621.249 369.645 620.821 368.24C612.715 341.662 600.12 328.382 599.988 328.25C599.381 327.627 598.883 326.867 598.521 326.013C598.159 325.159 597.941 324.227 597.88 323.272C597.819 322.317 597.915 321.357 598.163 320.447C598.411 319.536 598.807 318.693 599.327 317.966C599.847 317.239 600.481 316.641 601.194 316.208C601.907 315.774 602.684 315.513 603.48 315.44C604.277 315.366 605.079 315.481 605.838 315.779C606.598 316.076 607.301 316.55 607.908 317.173C608.519 317.795 622.974 332.827 632.25 363.233C632.587 364.335 632.696 365.519 632.57 366.682C632.443 367.846 632.084 368.956 631.523 369.917C630.962 370.879 630.215 371.665 629.347 372.207C628.478 372.749 627.513 373.032 626.534 373.031H626.541Z" fill="#95D67C"/>
<path d="M638.745 415.031C635.456 384.038 626.092 360.654 618.84 346.497C610.982 331.167 603.826 323.064 603.756 322.986L604.169 322.456C604.243 322.534 611.457 330.699 619.356 346.108C626.644 360.325 636.026 383.806 639.348 414.931L638.745 415.031Z" fill="#F7F1D2"/>
<path d="M647.327 373.031C648.575 373.031 649.792 372.572 650.815 371.715C651.837 370.858 652.615 369.644 653.043 368.24C661.15 341.662 673.745 328.382 673.876 328.25C674.483 327.627 674.982 326.867 675.344 326.013C675.705 325.159 675.923 324.227 675.984 323.272C676.046 322.317 675.95 321.357 675.702 320.447C675.453 319.536 675.058 318.693 674.538 317.966C674.018 317.239 673.383 316.641 672.671 316.208C671.958 315.774 671.181 315.513 670.384 315.44C669.587 315.366 668.786 315.481 668.026 315.779C667.266 316.076 666.563 316.55 665.956 317.173C665.346 317.795 650.89 332.827 641.614 363.233C641.278 364.336 641.168 365.519 641.295 366.683C641.422 367.847 641.781 368.957 642.343 369.919C642.905 370.881 643.651 371.666 644.52 372.208C645.389 372.75 646.355 373.032 647.334 373.031H647.327Z" fill="#95D67C"/>
<path d="M639.352 414.987H638.741C639.056 382.689 647.455 359.256 654.458 345.284C662.034 330.134 669.648 322.508 669.724 322.447L670.112 323.012C670.035 323.086 662.488 330.637 654.962 345.687C648.021 359.567 639.663 382.869 639.352 414.987Z" fill="#F7F1D2"/>
<path d="M653.617 438H622.557L619.513 389.855H656.658L653.617 438Z" fill="#D2E4F9"/>
<path d="M656.658 389.855L655.799 403.459H620.317L619.513 389.855H656.658Z" fill="#BED6ED"/>
<path d="M40.0874 366.829C38.98 366.829 37.8994 366.421 36.992 365.66C36.0846 364.899 35.3942 363.823 35.0143 362.576C27.8214 338.999 16.6519 327.221 16.5386 327.098C15.451 325.982 14.778 324.394 14.6676 322.683C14.5573 320.972 15.0186 319.278 15.9502 317.975C16.8817 316.672 18.2071 315.865 19.6349 315.733C21.0627 315.601 22.4758 316.153 23.5634 317.27C24.108 317.826 36.9295 331.159 45.1568 358.131C45.4547 359.108 45.5516 360.158 45.4391 361.19C45.3266 362.222 45.0081 363.206 44.5107 364.059C44.0132 364.912 43.3514 365.609 42.5814 366.091C41.8114 366.572 40.9559 366.824 40.0874 366.825V366.829Z" fill="#82CC62"/>
<path d="M41.4836 403.507L40.8805 403.411C44.17 373.364 38.2855 352.967 32.7702 341.145C26.7944 328.334 19.9523 322.552 19.8865 322.495L20.252 321.895C20.3215 321.956 27.2586 327.808 33.3002 340.729C38.852 352.673 44.795 373.237 41.4836 403.507Z" fill="#F7F1D2"/>
<path d="M43.9141 365.804C44.8125 365.803 45.689 365.472 46.425 364.855C47.1611 364.237 47.7212 363.364 48.0296 362.353C53.8775 343.208 62.9418 333.647 63.0332 333.55C63.8832 332.632 64.4003 331.353 64.4741 329.984C64.5478 328.616 64.1724 327.267 63.4279 326.226C62.6835 325.184 61.6289 324.533 60.4892 324.41C59.3496 324.288 58.2151 324.704 57.3278 325.57C56.8855 326.008 46.4762 336.844 39.784 358.744C39.5418 359.538 39.463 360.39 39.5544 361.229C39.6457 362.067 39.9045 362.867 40.3088 363.56C40.7131 364.253 41.2509 364.819 41.8767 365.21C42.5024 365.6 43.1976 365.804 43.9032 365.804H43.9141Z" fill="#82CC62"/>
<path d="M38.9946 396.022H38.3842C38.6145 372.738 44.4624 355.844 49.349 345.77C54.6304 334.847 59.9484 329.35 59.9922 329.297L60.3906 329.853C60.3358 329.906 55.0909 335.342 49.8644 346.169C45.0179 356.151 39.2212 372.913 38.9946 396.022Z" fill="#F7F1D2"/>
<path d="M42.825 281.332H37.6203C35.5533 281.332 33.8777 283.34 33.8777 285.817V347.952C33.8777 350.429 35.5533 352.437 37.6203 352.437H42.825C44.892 352.437 46.5676 350.429 46.5676 347.952V285.817C46.5676 283.34 44.892 281.332 42.825 281.332Z" fill="#95D67C"/>
<path d="M40.5296 295.908H39.9193V407.471H40.5296V295.908Z" fill="#F7F1D2"/>
<path d="M28.6766 373.031C27.4282 373.032 26.2097 372.573 25.1865 371.716C24.1633 370.859 23.3848 369.645 22.9566 368.24C14.85 341.662 2.25505 328.382 2.12347 328.25C1.51655 327.626 1.01809 326.866 0.656561 326.011C0.295033 325.156 0.0775136 324.225 0.0164229 323.269C-0.106955 321.34 0.414324 319.431 1.46558 317.962C2.51685 316.493 4.01198 315.584 5.62206 315.437C7.23215 315.289 8.8253 315.913 10.051 317.173C10.6614 317.795 25.1167 332.827 34.393 363.233C34.7294 364.335 34.8389 365.518 34.7122 366.682C34.5855 367.846 34.2264 368.956 33.6653 369.917C33.1042 370.879 32.3577 371.664 31.4892 372.207C30.6207 372.749 29.6559 373.032 28.6766 373.031Z" fill="#95D67C"/>
<path d="M40.8805 415.031C37.5911 384.038 28.2308 360.654 20.9757 346.497C13.1176 331.167 5.96121 323.064 5.89177 322.986L6.30843 322.456C6.37788 322.534 13.5927 330.699 21.4947 346.108C28.779 360.325 38.1613 383.806 41.4836 414.931L40.8805 415.031Z" fill="#F7F1D2"/>
<path d="M49.4623 373.031C50.712 373.034 51.9321 372.576 52.9568 371.718C53.9815 370.861 54.7611 369.647 55.1896 368.24C63.2963 341.662 75.8912 328.382 76.0228 328.25C76.6297 327.627 77.1283 326.867 77.49 326.013C77.8517 325.159 78.0695 324.227 78.1309 323.272C78.1924 322.317 78.0962 321.357 77.848 320.447C77.5998 319.536 77.2044 318.693 76.6843 317.966C76.1643 317.239 75.5298 316.641 74.8171 316.208C74.1043 315.774 73.3273 315.513 72.5305 315.44C71.7336 315.366 70.9324 315.481 70.1726 315.779C69.4129 316.076 68.7095 316.55 68.1025 317.173C67.4922 317.795 53.0369 332.827 43.7606 363.233C43.4241 364.336 43.3146 365.519 43.4415 366.683C43.5684 367.847 43.9278 368.957 44.4894 369.919C45.0509 370.881 45.7979 371.666 46.6668 372.208C47.5358 372.75 48.5011 373.032 49.4806 373.031H49.4623Z" fill="#95D67C"/>
<path d="M41.4872 414.987H40.8769C41.1948 382.689 49.5902 359.256 56.5931 345.284C64.1698 330.134 71.7831 322.508 71.8598 322.447L72.2472 323.012C72.1705 323.086 64.623 330.637 57.0975 345.687C50.1421 359.567 41.8016 382.869 41.4872 414.987Z" fill="#F7F1D2"/>
<path d="M55.7525 438H24.6928L21.6482 389.855H58.7971L55.7525 438Z" fill="#D2E4F9"/>
<path d="M58.7971 389.855L57.9345 403.459H22.4523L21.6482 389.855H58.7971Z" fill="#BED6ED"/>
<path d="M248.222 22.2723H183.902V99.3516H248.222V22.2723Z" fill="#F9F9F9"/>
<path d="M243.938 27.4013H188.178V94.2225H243.938V27.4013Z" fill="#F5FDFF"/>
<path d="M243.942 70.5881C243.942 70.5881 224.735 66.8695 210.484 76.3478V94.2225H243.942V70.5881Z" fill="#82CC62"/>
<path d="M188.178 70.6056C188.178 70.6056 211.413 69.2128 232.769 94.2226H188.178V70.6056Z" fill="#95D67C"/>
<path d="M206.146 56.1253C210.08 56.1253 213.27 52.3034 213.27 47.5887C213.27 42.8741 210.08 39.0521 206.146 39.0521C202.212 39.0521 199.023 42.8741 199.023 47.5887C199.023 52.3034 202.212 56.1253 206.146 56.1253Z" fill="#FFD364"/>
<path d="M543.421 0H479.101V99.3515H543.421V0Z" fill="#00C3DE"/>
<path d="M539.137 5.12897H483.377V94.2269H539.137V5.12897Z" fill="white"/>
<path d="M527.986 94.2226H483.395C483.395 94.2226 506.612 69.204 527.986 94.2226Z" fill="#57C49D"/>
<path d="M539.141 5.12897L482.756 70.5881L483.377 94.2269L539.141 72.8394V5.12897Z" fill="#80CEB4"/>
</svg>
