<svg width="60" height="60" viewBox="0 0 60 60" fill="none" xmlns="http://www.w3.org/2000/svg">
<path fill-rule="evenodd" clip-rule="evenodd" d="M60 30C60 37.9565 56.8393 45.5871 51.2132 51.2132C45.5871 56.8393 37.9565 60 30 60C22.0435 60 14.4129 56.8393 8.7868 51.2132C3.16071 45.5871 0 37.9565 0 30C0 22.0435 3.16071 14.4129 8.7868 8.7868C14.4129 3.16071 22.0435 0 30 0C37.9565 0 45.5871 3.16071 51.2132 8.7868C56.8393 14.4129 60 22.0435 60 30V30ZM24.6375 22.6238H19.6875C19.575 15.5513 25.05 13.125 30.0225 13.125C35.2612 13.125 40.0462 15.8625 40.0462 21.525C40.0462 25.575 37.665 27.5025 35.3813 29.2388C32.6175 31.335 31.5938 32.1187 31.5938 34.8112V36.1425H26.6888L26.6625 34.4062C26.52 30.93 28.5187 28.7887 31.0425 26.955C33.255 25.29 34.6613 24.195 34.6613 21.8137C34.6613 18.72 32.3062 17.4338 29.7337 17.4338C26.355 17.4338 24.6413 19.695 24.6413 22.6238H24.6375ZM29.3288 46.785C27.1388 46.785 25.545 45.3075 25.545 43.3088C25.545 41.2388 27.1388 39.7838 29.3325 39.7838C31.6163 39.7838 33.1875 41.2388 33.1875 43.3088C33.1875 45.3075 31.6125 46.785 29.3288 46.785Z" fill="#1400FF"/>
</svg>
