<svg width="618" height="565" viewBox="0 0 618 565" fill="none" xmlns="http://www.w3.org/2000/svg">
<path d="M450.932 171.026H418.305V194.496H450.932V171.026Z" fill="#9BD8F9"/>
<path d="M503.997 126.995H471.37V194.496H503.997V126.995Z" fill="#9BD8F9"/>
<path d="M557.063 106.604H524.436V194.49H557.063V106.604Z" fill="#9BD8F9"/>
<path d="M610.128 82.8968H577.501V194.496H610.128V82.8968Z" fill="#9BD8F9"/>
<path d="M618 194.496H410.427V199.547H618V194.496Z" fill="#9BD8F9"/>
<path d="M272.789 84.6427C272.789 99.6938 267.819 114.407 258.506 126.921C249.193 139.436 235.956 149.19 220.469 154.95C204.982 160.71 187.941 162.217 171.5 159.28C155.059 156.344 139.957 149.096 128.104 138.453C116.251 127.811 108.179 114.251 104.909 99.489C101.638 84.7271 103.317 69.4259 109.732 55.5205C116.146 41.6151 127.01 29.7299 140.948 21.368C154.885 13.006 171.272 8.54282 188.035 8.54282V84.6427H272.789Z" fill="#FF6662"/>
<path d="M287.061 76.0999H202.306V0C224.785 0 246.342 8.01764 262.237 22.2891C278.131 36.5606 287.061 55.9169 287.061 76.0999Z" fill="#521755"/>
<path d="M568.811 297.19L550.883 388.991C550.405 391.439 548.966 393.653 546.827 395.231C544.688 396.81 541.991 397.648 539.223 397.596L435.081 395.63L398.584 376.188L474.693 375.691L488.209 293.84C488.618 291.372 490.001 289.118 492.105 287.489C494.21 285.86 496.896 284.963 499.674 284.963H557.377C559.073 284.961 560.748 285.292 562.286 285.934C563.823 286.576 565.185 287.513 566.275 288.678C567.366 289.844 568.158 291.211 568.596 292.681C569.034 294.152 569.107 295.691 568.811 297.19Z" fill="#D7DEE2"/>
<path d="M548.033 558.028L509.963 396.557H527.349L556.66 557.938L548.033 558.028Z" fill="#D7DEE2"/>
<path d="M424.68 558.028L462.743 396.557H445.363L416.046 557.938L424.68 558.028Z" fill="#D7DEE2"/>
<path d="M189.331 531.84L135.29 565L236.941 563.977L236.532 531.366L189.331 531.84Z" fill="#0A2255"/>
<path d="M396.47 300.721L221.001 350.656C203.552 353.893 193.044 362.193 193.22 376.115L177.627 531.959L255.95 531.168L271.959 408.523L408.803 397.76C408.803 397.76 451.41 397.76 470.282 352.436V314.897L396.47 300.721Z" fill="#6D5652"/>
<path d="M367.939 319.592C367.939 319.592 395.476 324.536 417.198 323.547L312.382 349.786C306.573 351.291 301.324 354.174 297.187 358.133C293.049 362.091 290.177 366.978 288.873 372.279L283.676 407.602L367.36 400.02L461.246 319.592H367.939Z" fill="#493734"/>
<path d="M291.906 531.84L237.859 565L339.516 563.977L339.107 531.366L291.906 531.84Z" fill="#0A2255"/>
<path d="M486.158 311.033L323.577 350.656C306.127 353.893 295.619 362.193 295.795 376.115L280.202 531.959L358.526 531.168L374.534 408.523L441.865 397.743C441.865 397.743 500.669 395.342 503.343 352.419C503.318 352.419 503.318 315.733 486.158 311.033Z" fill="#6D5652"/>
<path d="M364.567 171.958V311.264C364.567 313.472 365.543 315.589 367.281 317.151C369.019 318.713 371.377 319.591 373.836 319.592H484.528C486.988 319.592 489.347 318.715 491.087 317.153C492.826 315.591 493.803 313.473 493.803 311.264V192.772C493.803 187.252 491.361 181.958 487.014 178.054C482.666 174.151 476.77 171.958 470.622 171.958H364.567Z" fill="#FF6662"/>
<path d="M439.681 132.645L447.062 171.963C447.062 171.963 436.208 181.772 424.629 181.003C413.051 180.235 403.788 172.161 403.788 172.161L411.339 124.859C411.339 124.859 434.188 117.311 439.681 132.645Z" fill="#FFC5C0"/>
<path d="M405.361 162.274C408.854 162.382 412.329 161.771 415.518 160.487C418.708 159.203 421.527 157.28 423.761 154.867C423.761 154.867 411.031 149.358 406.255 156.658L405.361 162.274Z" fill="#FF9198"/>
<path d="M403.788 107.825C403.788 107.825 384.69 151.895 406.255 156.658C406.255 156.658 432.608 162.534 441.286 141.222L439.757 112.893C439.757 112.893 427.524 96.3212 403.788 107.825Z" fill="#FFC5C0"/>
<path d="M400.164 117.729C400.164 117.729 412.12 120.797 422.332 117.588L402.341 112.243C402.341 112.243 401.252 113.853 400.164 117.729Z" fill="#FF9198"/>
<path d="M423.201 124.204L422.332 117.588C422.332 117.588 387.868 120.345 392.027 99.553C392.027 99.553 394.192 83.2132 411.088 88.1852C411.088 88.1852 418.978 92.677 419.13 95.0556C419.13 95.0556 435.736 91.5074 434.144 106.214C434.144 106.214 453.531 104.169 441.814 144.324C441.814 144.324 432.545 140.99 425.655 127.939C424.969 126.633 423.824 125.549 423.201 124.204Z" fill="#1E1E3C"/>
<path d="M430.085 136.696C434.297 136.696 437.711 133.63 437.711 129.848C437.711 126.066 434.297 123 430.085 123C425.873 123 422.458 126.066 422.458 129.848C422.458 133.63 425.873 136.696 430.085 136.696Z" fill="#FFC5C0"/>
<path d="M121.195 270.669L156.868 267.872L152.123 300.28L123.177 301.072C120.683 301.135 118.204 300.705 115.917 299.811C113.629 298.918 111.588 297.583 109.94 295.901C108.292 294.219 107.076 292.232 106.38 290.081C105.683 287.93 105.523 285.668 105.91 283.455C106.508 280.1 108.337 277.02 111.105 274.703C113.874 272.387 117.425 270.967 121.195 270.669Z" fill="#FFC5C0"/>
<path d="M147.894 268.578L143.49 300.518L152.123 300.286L156.868 267.872L147.894 268.578Z" fill="#FF9198"/>
<path d="M118.363 263.55C118.712 262.327 119.587 261.278 120.796 260.633C122.006 259.989 123.451 259.803 124.813 260.115L145.988 265.149C145.988 265.149 155.552 266.567 156.182 268.364L141.633 269.985L138.795 273.149L122.202 269.341C121.526 269.187 120.891 268.916 120.332 268.541C119.773 268.167 119.302 267.698 118.946 267.16C118.589 266.622 118.354 266.026 118.254 265.407C118.154 264.787 118.191 264.156 118.363 263.55Z" fill="#FFC5C0"/>
<path d="M348.716 180.156L282.763 263.245L152.708 259.516L151.896 265.906L151.846 266.33L147.813 298.258L147.183 303.083L283.317 307.479C293.819 307.819 304.138 304.946 312.584 299.331L389.032 225.373C389.032 225.373 407.004 183.292 348.716 180.173" fill="#FF6662"/>
<path d="M371.784 229.87C389.724 229.87 404.266 216.813 404.266 200.705C404.266 184.597 389.724 171.54 371.784 171.54C353.845 171.54 339.302 184.597 339.302 200.705C339.302 216.813 353.845 229.87 371.784 229.87Z" fill="#FF6662"/>
<path d="M427.499 298.614L493.841 304.947V311.264C493.841 311.264 494.515 316.31 484.566 319.592H367.939C367.939 319.592 363.478 319.779 364.567 311.264L427.499 298.614Z" fill="#F25353"/>
<path d="M397.319 171.963C397.319 171.963 397.231 191.699 425.353 191.699C453.474 191.699 452.895 171.963 452.895 171.963H397.319Z" fill="#FFC5C0"/>
<path d="M493.822 231.961L427.499 298.631C423.608 302.539 418.847 305.672 413.524 307.825C408.201 309.979 402.434 311.106 396.596 311.134L364.567 311.281V257.504L385.275 257.849L423.761 217.649L493.822 223.118V231.961Z" fill="#F25353"/>
<path d="M226.004 270.669L261.67 267.872L256.932 300.28L227.986 301.072C225.492 301.135 223.013 300.705 220.726 299.811C218.438 298.918 216.397 297.583 214.749 295.901C213.101 294.219 211.885 292.232 211.189 290.081C210.492 287.93 210.332 285.668 210.719 283.455C211.317 280.1 213.146 277.02 215.915 274.703C218.683 272.387 222.234 270.967 226.004 270.669Z" fill="#FFC5C0"/>
<path d="M252.703 268.578L248.299 300.518L256.932 300.286L261.677 267.872L252.703 268.578Z" fill="#FF9198"/>
<path d="M223.172 263.55C223.521 262.327 224.396 261.278 225.605 260.633C226.815 259.989 228.26 259.803 229.622 260.115L250.778 265.154C250.778 265.154 260.343 266.573 260.972 268.369L246.423 269.991L243.586 273.155L226.992 269.347C226.316 269.193 225.681 268.92 225.124 268.545C224.566 268.17 224.096 267.7 223.741 267.161C223.386 266.622 223.153 266.026 223.055 265.406C222.958 264.787 222.998 264.156 223.172 263.55Z" fill="#FFC5C0"/>
<path d="M453.525 180.156L387.572 263.245L257.517 259.516L256.737 265.906L256.687 266.33L252.653 298.258L252.024 303.083L388.157 307.479C398.659 307.819 408.979 304.946 417.424 299.331L493.841 225.373C493.841 225.373 511.813 183.292 453.525 180.173" fill="#FF6662"/>
<path d="M476.587 229.87C494.526 229.87 509.069 216.813 509.069 200.705C509.069 184.597 494.526 171.54 476.587 171.54C458.648 171.54 444.105 184.597 444.105 200.705C444.105 216.813 458.648 229.87 476.587 229.87Z" fill="#FF6662"/>
<path d="M353.743 259.521L350.981 262.194L284.657 260.861L288.653 255.821L353.743 259.521Z" fill="#F25353"/>
<path d="M212.444 293.964H71.9367V203.942C71.9367 202.965 72.3689 202.028 73.1384 201.338C73.9078 200.647 74.9513 200.259 76.0395 200.259H208.341C209.429 200.259 210.473 200.647 211.242 201.338C212.011 202.028 212.444 202.965 212.444 203.942V293.964Z" fill="#DDDDED"/>
<path d="M285.507 304.761H74.3971C73.7446 304.761 73.1187 304.528 72.6573 304.114C72.1959 303.7 71.9367 303.138 71.9367 302.552V293.964H287.967V302.552C287.967 303.138 287.708 303.7 287.246 304.114C286.785 304.528 286.159 304.761 285.507 304.761Z" fill="#ADADD8"/>
<path d="M211.619 304.761H74.3971C73.7446 304.761 73.1187 304.528 72.6573 304.114C72.1959 303.7 71.9367 303.138 71.9367 302.552V293.964H212.444V304.027C212.444 304.221 212.357 304.408 212.204 304.546C212.051 304.684 211.843 304.761 211.626 304.761H211.619Z" fill="#C7C7E2"/>
<path d="M142.193 264.149C152.025 264.149 159.995 256.993 159.995 248.165C159.995 239.337 152.025 232.181 142.193 232.181C132.362 232.181 124.392 239.337 124.392 248.165C124.392 256.993 132.362 264.149 142.193 264.149Z" fill="#C7C7E2"/>
<path d="M474.221 304.947H4.44885V319.18H474.221V304.947Z" fill="#EAE7DF"/>
<path d="M8.74039 565L62.8188 319.592H41.6883L0 564.91L8.74039 565Z" fill="#A89A7B"/>
<path d="M475.228 565L421.149 319.592H442.286L483.974 564.91L475.228 565Z" fill="#A89A7B"/>
<path d="M402.133 284.506C402.133 287.306 400.894 289.992 398.689 291.973C396.483 293.953 393.492 295.066 390.372 295.066H384.011V291.975H390.372C392.538 291.922 394.595 291.111 396.106 289.717C397.617 288.323 398.462 286.454 398.462 284.509C398.462 282.563 397.617 280.695 396.106 279.3C394.595 277.906 392.538 277.096 390.372 277.042H386.402V273.946H390.372C393.492 273.946 396.483 275.058 398.689 277.039C400.894 279.019 402.133 281.705 402.133 284.506Z" fill="#EAE7DF"/>
<path d="M388.566 273.946H386.402V277.042H388.566V273.946Z" fill="#DDD9CE"/>
<path d="M388.566 291.975H384.011V295.071H388.566V291.975Z" fill="#DDD9CE"/>
<path d="M354.228 270.07H387.201V298.32C387.201 300.142 386.395 301.89 384.96 303.178C383.525 304.467 381.579 305.19 379.549 305.19H361.88C359.85 305.19 357.904 304.467 356.469 303.178C355.034 301.89 354.228 300.142 354.228 298.32V270.07Z" fill="#EAE7DF"/>
<path d="M382.941 270.07V292.501C382.941 300.026 376.68 304.077 368.588 305.015C369.293 305.101 370.003 305.146 370.714 305.151C379.82 305.151 387.195 300.676 387.195 292.501V270.07H382.941Z" fill="#DDD9CE"/>
<path d="M462.806 492.957C461.31 492.956 459.851 492.543 458.625 491.773C457.399 491.003 456.467 489.913 455.954 488.652C446.238 464.792 431.148 452.864 430.997 452.746C430.255 452.191 429.643 451.509 429.197 450.74C428.751 449.97 428.479 449.129 428.398 448.265C428.316 447.401 428.427 446.531 428.724 445.705C429.02 444.88 429.496 444.116 430.124 443.457C430.752 442.798 431.519 442.257 432.382 441.867C433.244 441.476 434.185 441.244 435.148 441.182C436.112 441.121 437.079 441.232 437.995 441.509C438.91 441.786 439.755 442.224 440.48 442.796C441.216 443.361 458.54 456.853 469.653 484.154C470.054 485.144 470.184 486.206 470.031 487.251C469.878 488.296 469.447 489.292 468.775 490.155C468.103 491.019 467.209 491.724 466.169 492.212C465.129 492.699 463.973 492.955 462.8 492.957H462.806Z" fill="#82CC62"/>
<path d="M464.7 530.083L463.882 529.987C468.325 499.573 460.377 478.928 452.927 466.956C444.854 453.994 435.61 448.141 435.515 448.085L435.987 447.474C436.082 447.536 445.426 453.463 453.607 466.56C461.145 478.628 469.174 499.46 464.7 530.083Z" fill="#F7F1D2"/>
<path d="M467.979 491.917C469.193 491.918 470.378 491.584 471.373 490.959C472.369 490.334 473.125 489.45 473.541 488.426C481.432 469.052 493.678 459.368 493.81 459.272C495.003 458.354 495.741 457.048 495.862 455.641C495.983 454.235 495.477 452.843 494.455 451.771C493.433 450.7 491.978 450.037 490.412 449.928C488.845 449.82 487.295 450.274 486.101 451.192C485.472 451.65 471.44 462.605 462.416 484.776C462.089 485.579 461.983 486.441 462.106 487.29C462.23 488.138 462.579 488.947 463.125 489.648C463.671 490.349 464.398 490.921 465.242 491.316C466.087 491.711 467.026 491.917 467.979 491.917Z" fill="#82CC62"/>
<path d="M461.334 522.506H460.509C460.818 498.935 468.69 481.826 475.303 471.656C482.433 460.599 489.606 455.034 489.682 454.983L490.21 455.548C490.141 455.605 483.056 461.102 475.989 472.063C469.47 482.148 461.636 499.115 461.334 522.506Z" fill="#F7F1D2"/>
<path d="M466.909 406.416H459.075C456.503 406.416 454.418 408.288 454.418 410.597V474.21C454.418 476.519 456.503 478.391 459.075 478.391H466.909C469.481 478.391 471.566 476.519 471.566 474.21V410.597C471.566 408.288 469.481 406.416 466.909 406.416Z" fill="#95D67C"/>
<path d="M463.404 421.174H462.58V534.106H463.404V421.174Z" fill="#F7F1D2"/>
<path d="M447.402 499.24C445.713 499.239 444.064 498.772 442.681 497.902C441.297 497.032 440.246 495.8 439.668 494.375C428.713 467.475 411.698 454.028 411.528 453.898C409.922 452.612 408.941 450.811 408.797 448.883C408.652 446.954 409.356 445.052 410.756 443.584C412.156 442.116 414.141 441.199 416.286 441.031C418.43 440.863 420.563 441.456 422.225 442.683C423.05 443.316 442.582 458.503 455.11 489.307C455.566 490.422 455.715 491.62 455.545 492.798C455.375 493.976 454.891 495.1 454.135 496.075C453.379 497.049 452.372 497.846 451.2 498.397C450.028 498.948 448.725 499.237 447.402 499.24Z" fill="#95D67C"/>
<path d="M463.882 541.75C460.463 517.183 451.298 493.543 436.988 472.38C426.372 456.859 416.707 448.65 416.612 448.582L417.173 448.017C417.267 448.102 427.02 456.367 437.693 471.967C452.056 493.223 461.259 516.962 464.7 541.632L463.882 541.75Z" fill="#F7F1D2"/>
<path d="M475.473 499.24C477.161 499.237 478.808 498.77 480.19 497.9C481.572 497.029 482.623 495.799 483.201 494.375C494.15 467.475 511.165 454.028 511.335 453.898C512.18 453.275 512.878 452.506 513.388 451.637C513.898 450.768 514.209 449.816 514.305 448.838C514.4 447.859 514.277 446.873 513.943 445.938C513.609 445.003 513.07 444.137 512.358 443.391C511.647 442.645 510.777 442.033 509.799 441.593C508.821 441.153 507.755 440.892 506.663 440.826C505.572 440.76 504.477 440.891 503.442 441.209C502.407 441.528 501.454 442.029 500.637 442.683C499.813 443.316 480.281 458.503 467.752 489.307C467.299 490.423 467.152 491.62 467.324 492.797C467.496 493.975 467.981 495.098 468.738 496.071C469.496 497.044 470.503 497.84 471.676 498.389C472.848 498.939 474.151 499.227 475.473 499.228V499.24Z" fill="#95D67C"/>
<path d="M464.7 541.705H463.876C464.304 509.009 475.649 485.29 485.088 471.148C495.326 455.814 505.608 448.107 505.715 448.028L506.238 448.593C506.137 448.672 495.937 456.317 485.774 471.549C476.392 485.612 465.122 509.195 464.7 541.705Z" fill="#F7F1D2"/>
<path d="M483.974 565H442.009L437.9 516.269H488.084L483.974 565Z" fill="#D2E4F9"/>
<path d="M488.084 516.269L486.926 530.038H438.989L437.9 516.269H488.084Z" fill="#BED6ED"/>
</svg>
